<?xml version="1.0" standalone="no"?>
<!DOCTYPE svg PUBLIC "-//W3C//DTD SVG 1.1//EN" "http://www.w3.org/Graphics/SVG/1.1/DTD/svg11.dtd" >
<svg xmlns="http://www.w3.org/2000/svg">
<metadata>
This is a custom SVG webfont generated by Font Squirrel.
Copyright   : Mirage Bambootypes 2009 All Rights Reserved Designed by Florian Bambhout for Bambootypes  wwwbambootypescom     The design of this font has been inspired by Inverserif typeface from Infinitype
Designer    : Florian Bambhout
Foundry     : Florian Bambhout
Foundry URL : wwwbambootypescom
</metadata>
<defs>
<font id="webfonttpGHR8Ms" horiz-adv-x="798" >
<font-face units-per-em="2048" ascent="1638" descent="-410" />
<missing-glyph horiz-adv-x="399" />
<glyph unicode=" "  horiz-adv-x="399" />
<glyph unicode="&#x09;" horiz-adv-x="399" />
<glyph unicode="&#xa0;" horiz-adv-x="399" />
<glyph unicode="!" horiz-adv-x="446" d="M0 49q0 25 14 60l242 692h190q31 0 48 -4q33 -8 32 -45v-2q0 -23 -14 -58l-162 -469h-137l-14 -39h22q55 0 76 -20q10 -10 10 -33q0 -27 -14 -70l-21 -61h-204q-51 0 -64 27q-4 6 -4 22z" />
<glyph unicode="&#x22;" horiz-adv-x="784" d="M0 535q143 14 225 57h-57q-35 0 -47 4q-6 2 -19 10q-12 12 -12 33q0 22 19 68q18 53 55 75q2 2 10 6.5t12 6.5q15 6 50 6h170q37 0 51 -10q20 -12 20 -39q0 -16 -16 -60q-12 -43 -37 -67q-2 -4 -8 -11q-41 -41 -135 -71q-142 -45 -281 -8zM383 535q143 14 225 57h-57 q-37 0 -49 4q-6 2 -19 10q-12 12 -12 33q0 22 18 68q18 53 56 75l24 13q15 6 49 6h168q37 0 52 -10q20 -12 20 -39q0 -23 -14 -60q-12 -43 -37 -67q-2 -4 -8 -11q-41 -41 -137 -71q-142 -45 -279 -8z" />
<glyph unicode="#" horiz-adv-x="598" d="M0 178l35 96h207l-74 -217h-96l41 121h-113zM92 440l33 97h108l41 120h97l-74 -217h-205zM289 57l73 217h205l-32 -96h-109l-41 -121h-96zM289 57l73 217h205l-32 -96h-109l-41 -121h-96zM418 440l74 217h96l-41 -120h112l-34 -97h-207z" />
<glyph unicode="$" horiz-adv-x="899" d="M0 49v8q0 20 14 58l25 67h260q-6 -16 -11 -31.5t-7 -24.5t-2 -11q-4 -16 -5 -21q0 -25 21 -37q18 -12 47 -12h12q72 0 90 37q2 4 10.5 29.5l30 89l43.5 125.5q8 23 -4 39q-12 14 -63 14h-219q-84 0 -105 27q-6 8 -6 20q0 16 10 43l90 252q4 12 17 29q23 33 55 45 q20 6 39 6h166l31 84h49l-31 -84h133l33 84h47l-31 -84h97q72 0 84 -4q23 -4 34 -13q16 -10 17 -39q0 -25 -15 -59l-22 -70h-258l14 39q12 37 12 54q0 37 -49 47q-6 2 -30 2h-215l-13 -37h25q39 0 59.5 -12.5t20.5 -38.5q0 -16 -8 -37l-39 -115q-4 -12 -7 -20q-12 -31 0 -49 q10 -16 62 -17h229q84 0 101 -29q6 -9 6 -18q0 -10 -13 -41l-92 -266q-8 -20 -16 -31q-35 -47 -98 -47h-183l-43 -113h-51l41 113h-131l-41 -113h-49l41 113h-109q-55 0 -71 8q-9 3 -19 12q-10 11 -10 29z" />
<glyph unicode="%" horiz-adv-x="1067" d="M0 414v2q0 20 10 43l101 278q6 16 14 29q14 20 39 31q10 4 31 4h378q31 0 39 -17q4 -8 4 -14v-2q0 -14 -12 -45l-100 -283l-12 -24q-20 -33 -68 -33h-381q-43 0 -43 31zM195 418h65q55 0 80 43q8 16 20 53l66 182q8 23 8 37q0 29 -33 35h-20h-152l-8 -25h17q27 0 41 -8 q16 -10 16 -28q0 -12 -6 -25zM252 12l563 817l53 -41l-563 -815zM500 33v2q0 18 10 41l98 280l15 29q16 23 39 31q10 4 30 4h379q33 0 41 -17q2 -4 2 -16v-2q0 -16 -10 -43l-103 -283l-12 -24q-25 -35 -65 -35h-381q-43 0 -43 33zM694 37h64q55 0 80 43q8 16 20 53l68 182 q8 23 8 37q0 27 -35 33q-4 2 -20 2h-152l-8 -25h16q27 0 43 -10q14 -8 15 -26q0 -14 -7 -27z" />
<glyph unicode="&#x26;" horiz-adv-x="894" d="M0 47v4q0 20 18 70l213 598q8 20 23 37q35 45 96 45h268l35 90h49l-34 -90h227q68 0 84 -27q8 -10 8 -26v-7q0 -18 -14 -59l-25 -74h-276q23 63 24 76q0 4 1 9l1 5v2q0 35 -39 48q-20 4 -38 4h-218l-12 -39h27q43 0 63.5 -14.5t20.5 -39.5q0 -20 -10 -45l-58 -170h369 l-19 -47h-501l-15 -39h25q55 0 76 -20q10 -10 10 -35q0 -23 -17 -72l-65 -182h109q52 0 79 19q35 18 54 63q18 49 22 62h256q-33 -98 -37 -107q-25 -55 -73 -74q-31 -12 -74 -12h-262l-39 -104h-51l38 104h-256q-43 0 -59 25q-4 8 -4 22z" />
<glyph unicode="'" horiz-adv-x="403" d="M0 535q143 14 225 57h-57q-35 0 -47 4q-6 2 -19 10q-12 12 -12 33q0 22 19 68q18 53 55 75q2 2 10 6.5t12 6.5q15 6 50 6h170q37 0 51 -10q20 -12 20 -39q0 -16 -16 -60q-12 -43 -37 -67q-2 -4 -8 -11q-41 -41 -135 -71q-142 -45 -281 -8z" />
<glyph unicode="(" horiz-adv-x="600" d="M0 45v2q0 18 16 62l213 600q8 23 21 41q23 33 55 45q23 6 43 6h359l-17 -47h-291l-12 -37h25q39 0 59.5 -12.5t20.5 -38.5q0 -20 -7 -39l-204 -578h180l-19 -49h-381q-61 0 -61 45z" />
<glyph unicode=")" horiz-adv-x="600" d="M-41 0l18 45h289l15 39h-25q-41 0 -59 10q-23 12 -23 39q0 14 8 39l205 578h-180l16 51h381q63 0 64 -45v-4q0 -18 -17 -62l-213 -598q-10 -29 -20 -43q-22 -31 -56 -43q-23 -6 -45 -6h-358z" />
<glyph unicode="*" horiz-adv-x="696" d="M0 653l186 70l-84 176l179 -86l67 186l66 -186l178 86l-84 -176l186 -70l-186 -65l84 -180l-178 88l-66 -187l-67 187l-179 -88l84 180zM76 655l145 -53l-65 -139l141 67l51 -145l51 145l140 -67l-66 139l145 53l-145 54l66 139l-140 -68l-51 146l-51 -146l-141 68 l65 -139z" />
<glyph unicode="+" horiz-adv-x="696" d="M0 276l16 48h213l99 276h204q51 0 64 -27q4 -6 4 -20q0 -27 -14 -61l-60 -168h213l-16 -54h-354l-13 -39h27q43 0 63.5 -14t20.5 -39q0 -20 -10 -45l-45 -133h-193q-29 0 -45 4q-35 10 -35 43v4q0 23 15 58l59 167h-213z" />
<glyph unicode="," horiz-adv-x="432" d="M0 -57q150 18 225 57h-57q-35 0 -47 4q-6 2 -19 10q-12 12 -12 33q0 22 19 68q18 57 55 78q18 8 22 10q15 6 50 6h170q41 0 51 -8q20 -12 20 -39q0 -18 -16 -62q-12 -43 -37 -67l-8 -8q-45 -45 -135 -74q-142 -45 -281 -8z" />
<glyph unicode="-" horiz-adv-x="421" d="M49 270l19 54h372l-16 -54h-375z" />
<glyph unicode="." horiz-adv-x="432" d="M90 47q0 22 19 68q18 57 55 78q18 8 22 10q15 6 50 6h170q41 0 51 -8q20 -12 20 -39q0 -18 -16 -62q-20 -61 -53 -82q-9 -6 -25 -12q-18 -6 -55 -6h-160q-35 0 -47 4q-6 2 -19 10q-12 13 -12 33z" />
<glyph unicode="/" horiz-adv-x="653" d="M-70 -139l775 1118l53 -41l-774 -1116z" />
<glyph unicode="0" horiz-adv-x="899" d="M0 45v2q0 18 16 62l213 600q8 23 21 41q23 33 55 45q23 6 43 6h563q45 0 60 -25q4 -8 4 -20v-4q0 -25 -17 -64l-217 -604q-6 -18 -18 -37q-35 -47 -94 -47h-568q-61 0 -61 45zM281 49h92q80 0 114 64q4 8 29 77l166 461q12 37 12 54q0 37 -49 47q-6 2 -29 2h-217l-12 -37 h25q39 0 59.5 -12.5t20.5 -38.5q0 -20 -7 -39z" />
<glyph unicode="1" horiz-adv-x="471" d="M0 47v4q0 23 14 58l199 567q31 78 -80 76h-31l19 49h340q49 0 61 -29q6 -10 6 -20q0 -27 -14 -62l-242 -690h-192q-29 0 -45 4q-35 10 -35 43z" />
<glyph unicode="2" horiz-adv-x="866" d="M0 0l61 170q18 31 72 57l305 191q111 63 133 133q57 166 58 174q0 29 -70 29h-6q-29 0 -41 -4q-43 -14 -63 -45q-10 -14 -11 -17l-26 -70h-262l24 70q12 37 29 60q18 25 42.5 37t43.5 14q8 2 88 2h491q16 0 35 -6q29 -12 27 -43q0 -12 -6 -31l-97 -272q-2 -8 -10 -25 q-16 -39 -49 -72q-27 -27 -111 -71l-327 -199h-119l-14 -33h622l-16 -49h-803z" />
<glyph unicode="3" horiz-adv-x="952" d="M12 86q0 2 4 12.5l14.5 39l20.5 55.5h256q-8 -18 -18 -62q-16 -45 6 -63q15 -18 67 -19h109l64 182q25 59 32 72q18 25 35 35q33 20 90 20h25l12 39h-502l19 47h366l64 170q8 27 20 45q16 25 47 39.5t74 14.5h29l12 39h-215q-18 0 -43 -4q-47 -12 -72 -48l-2 -2 q-2 -2 -4 -6l-4 -8q-6 -8 -29 -76h-276l27 74q12 35 28 59l4 7q12 16 29 26q37 27 100 27h545q63 0 68 -45q0 -14 -6 -37l-209 -598q-14 -47 -31 -70l-2 -4q-2 -4 -21 -22q-31 -25 -75 -25h-570q-43 0 -65 12q-35 19 -23 74z" />
<glyph unicode="4" horiz-adv-x="823" d="M-49 258l528 543h342q49 0 62 -29q6 -10 6 -20q0 -27 -15 -62l-135 -385h162l-16 -47h-162l-90 -258h-193q-31 0 -47 4q-33 8 -33 43v4q0 23 15 58l51 149h-475zM92 305h350q123 356 127 361q12 25 33 32q2 0 9 3.5t12 5.5q29 4 47 4l12 37h-156z" />
<glyph unicode="5" horiz-adv-x="899" d="M0 49v8q0 20 14 58l25 67h260q-6 -16 -11 -31.5t-7 -24.5t-2 -11q-4 -16 -5 -21q0 -25 21 -37q18 -12 47 -12h12q72 0 90 37q2 4 10.5 29.5l30 89l43.5 125.5q8 23 -4 39q-12 14 -63 14h-352l151 422h576q72 0 84 -4q23 -4 34 -13q16 -10 17 -39q0 -25 -15 -59l-22 -70 h-262q20 61 20 70q2 6 2 19q0 31 -32 43q-14 6 -35 6h-228l-12 -39h27q43 0 63.5 -14.5t20.5 -41.5q0 -16 -6 -32l-70 -195h315q84 0 101 -29q6 -9 6 -18q0 -10 -13 -41l-92 -266q-8 -20 -16 -31q-35 -47 -98 -47h-525q-55 0 -71 8q-9 3 -19 12q-10 11 -10 29z" />
<glyph unicode="6" horiz-adv-x="831" d="M0 47q0 25 14 62l219 614q8 20 29 45q31 33 86 33h537l-19 -49h-280q-61 0 -74 -37l-94 -260h342q35 0 51 -9q25 -14 25 -38q0 -27 -15 -58l-92 -252q-10 -33 -20 -47q-33 -51 -101 -51h-545q-47 0 -59 23q-4 6 -4 24zM147 45h226q76 0 112 61q16 37 23 56q55 150 59 164 q6 23 6 28q0 33 -32 45q-16 6 -39 7h-103l-90 -246q-25 -49 -65 -66q-27 -10 -82 -10z" />
<glyph unicode="7" horiz-adv-x="614" d="M0 752l12 49h596q49 0 62 -29q6 -10 6 -20q0 -27 -14 -62l-242 -690h-193q-31 0 -47 4q-33 8 -33 43v4q0 23 15 58l196 567q14 41 -5 59.5t-72 16.5h-281z" />
<glyph unicode="8" horiz-adv-x="942" d="M14 86q80 231 97 256l4 6q16 20 28 29q25 18 72 24q-18 4 -25 9q-33 18 -20 71l72 201q18 45 26 59l6 7q8 14 27 26q37 27 98 27v2h537q68 0 84 -27q8 -10 8 -26v-9q0 -23 -14 -59l-70 -199q-25 -55 -72 -73q-10 -4 -30 -9q45 -6 55 -22q8 -10 8 -29v-6q0 -18 -86 -258 q-25 -55 -71 -74q-31 -12 -74 -12h-504h-70q-43 0 -65 12q-35 19 -21 74zM309 358h25q57 0 76 -18q10 -14 10 -35q0 -23 -17 -72l-65 -184h108q45 0 80 21q31 18 49 55q66 182 70 207v12v2q0 35 -39 47q-20 4 -39 4h-243zM430 715h29q43 0 63 -15q18 -12 18.5 -38.5 t-8.5 -45.5l-59 -170h80q49 0 80 21q33 18 51 61q45 123 53 158q2 6 2 14v2q0 35 -41 48q-20 4 -36 4h-218z" />
<glyph unicode="9" horiz-adv-x="901" d="M0 0l18 49h336q70 0 88 33q6 8 76 205h-342q-39 0 -51 6q-25 14 -25 41q0 25 15 55l110 313q8 23 23 46q35 53 98 53h547q43 0 57 -25q4 -6 4 -22q0 -25 -14 -62l-219 -614q-8 -20 -29 -45q-31 -33 -86 -33h-606zM362 385q0 -31 33 -43q14 -6 39 -6h103l108 305 q25 49 66 66q27 10 84 10l12 37h-225q-78 0 -113 -60q-16 -37 -23 -55q-78 -219 -77 -223q-7 -22 -7 -31z" />
<glyph unicode=":" horiz-adv-x="428" d="M41 47q0 29 16 70q18 53 56 76l24 12q15 6 49 6h168q37 0 52 -10q20 -12 20 -39q0 -23 -14 -60q-18 -61 -56 -82q-12 -8 -22 -12q-25 -8 -58 -8h-157q-37 0 -49 4l-19 12q-10 11 -10 31zM160 358q0 22 18 68q18 57 55 78q18 8 23 10q15 6 49 6h170q41 0 51 -8 q20 -12 21 -41q0 -16 -17 -59q-20 -61 -53 -82q-9 -6 -24 -13q-18 -6 -56 -6h-159q-35 0 -48 4q-6 2 -18 11q-12 12 -12 32z" />
<glyph unicode=";" horiz-adv-x="477" d="M0 -57q150 18 225 57h-57q-35 0 -47 4q-6 2 -19 10q-12 12 -12 33q0 22 19 68q18 57 55 78q18 8 22 10q15 6 50 6h170q41 0 51 -8q20 -12 20 -39q0 -18 -16 -62q-12 -43 -37 -67l-8 -8q-45 -45 -135 -74q-142 -45 -281 -8zM203 358q0 22 18 68q18 57 55 78q18 8 23 10 q15 6 49 6h170q41 0 51 -8q20 -12 21 -41q0 -16 -17 -59q-20 -61 -53 -82q-9 -6 -24 -13q-18 -6 -56 -6h-159q-35 0 -48 4q-6 2 -18 11q-12 12 -12 32z" />
<glyph unicode="&#x37e;" horiz-adv-x="477" d="M0 -57q150 18 225 57h-57q-35 0 -47 4q-6 2 -19 10q-12 12 -12 33q0 22 19 68q18 57 55 78q18 8 22 10q15 6 50 6h170q41 0 51 -8q20 -12 20 -39q0 -18 -16 -62q-12 -43 -37 -67l-8 -8q-45 -45 -135 -74q-142 -45 -281 -8zM203 358q0 22 18 68q18 57 55 78q18 8 23 10 q15 6 49 6h170q41 0 51 -8q20 -12 21 -41q0 -16 -17 -59q-20 -61 -53 -82q-9 -6 -24 -13q-18 -6 -56 -6h-159q-35 0 -48 4q-6 2 -18 11q-12 12 -12 32z" />
<glyph unicode="&#x3c;" horiz-adv-x="417" d="M0 307l33 96l426 156l-39 -104l-291 -107l215 -104l-31 -88z" />
<glyph unicode="=" horiz-adv-x="598" d="M41 201l16 49h553l-16 -49h-553zM41 346l16 47h553l-16 -47h-553z" />
<glyph unicode="&#x3e;" horiz-adv-x="456" d="M0 152l37 104l297 109l-219 106l30 86l318 -154l-33 -96z" />
<glyph unicode="?" horiz-adv-x="718" d="M31 49q0 31 12 60l102 290h162q49 0 80 21q35 18 53 61q8 20 19 51q0 2 4 7v4l11 28.5t13 42.5q6 18 23 43q20 31 45 41q31 14 76 15h26l15 35h-637l26 53h660q49 0 61 -29q4 -6 4 -20q0 -27 -14 -62l-76 -217q-4 -8 -7 -17.5t-5 -13.5t-2 -6q-25 -55 -74 -74 q-31 -12 -73 -12h-111l-43 -127h-139l-15 -39h25q55 0 76 -20q10 -10 10 -33q0 -27 -14 -70l-23 -61h-205q-49 0 -61 27q-4 6 -4 22z" />
<glyph unicode="@" horiz-adv-x="897" d="M-2 229q-18 205 125 359q141 150 377 149q121 -8 207 -47q80 -35 133 -104.5t59 -116.5l4 -27.5t3 -21.5t1 -10v-17q0 -78 -26 -151q-27 -76 -70 -109q-45 -35 -80 -47q-43 -14 -82 -14q-25 0 -51 10q-16 6 -33 18h-334q-35 0 -47 13q-10 10 -10 22v2q0 14 8 33l39 115 q14 31 45 45q6 3 19 6q8 2 39 2h198l43 123h-45q-27 0 -33 -2q-12 -3 -18 -6q-25 -12 -37 -41q-2 -6 -6 -16.5t-8 -22.5h-158l23 63q2 8 8 17q15 22 37 30q25 8 51 9h326q25 0 34 -11q8 -8 9 -18v-2q0 -12 -11 -39l-90 -252q4 -16 10 -20q8 -10 31 -11q4 0 33 4q16 2 47 37 t51 86q23 57 23 123q0 41 -13 82q-12 40 -49 92q-39 55 -127 82q-92 29 -174 29q-158 -6 -272.5 -108.5t-120.5 -305.5q0 -104 53 -184q55 -82 133 -129q76 -45 162 -45q100 0 180 20q70 18 154 66l-29 -74q-41 -23 -104 -43q-92 -31 -186 -31q-120 0 -222 49 q-100 49 -161 142q-58 85 -68 198zM342 164q0 -23 25 -29q12 -4 22 -4h146l8 25h-11q-41 0 -53 14q-4 4 -4 18q0 12 4 25l33 96h-61q-41 0 -62 -24q-10 -12 -12 -21q-2 -4 -7 -16l-8 -19q-4 -12 -10 -28.5t-8 -22.5t-2 -14z" />
<glyph unicode="A" horiz-adv-x="778" d="M-70 0l473 801h232q63 0 82 -43q8 -16 8 -58v-700h-205q-41 0 -55 8q-43 18 -43 82v121h-277l-116 -211h-99zM195 289h364l14 37q-66 0 -84 6q-8 2 -20 6q-29 12 -37 39q-10 25 -10 65v148v78l-4 -4z" />
<glyph unicode="B" horiz-adv-x="915" d="M0 0l285 801h614q68 0 84 -27q10 -14 10 -26v-7q0 -23 -14 -59l-70 -201q-25 -53 -71 -71q-10 -4 -31 -9q41 -6 53 -24q10 -14 10 -29v-6q0 -16 -86 -256q-25 -55 -71 -74q-31 -12 -74 -12h-639zM274 358h25q55 0 76 -20q10 -14 10 -33q0 -23 -16 -72l-68 -184h111 q49 0 79.5 18.5t49.5 55.5q66 182 69 207v12v4q0 35 -39 47q-20 4 -39 4h-243zM395 713h29q43 0 63 -15q18 -12 18.5 -38.5t-7.5 -45.5l-60 -168h78q53 0 82 19q31 16 51 63q47 129 53 156q2 6 3 14v2q0 35 -41 48q-20 4 -37 4h-217z" />
<glyph unicode="C" horiz-adv-x="899" d="M0 47v4q0 20 18 70l213 598q8 20 23 37q35 45 96 45h524q68 0 84 -27q10 -14 11 -26v-7q0 -14 -17 -59l-22 -74h-279l12.5 35t10.5 28t4 13v14v2q0 35 -39 48q-20 4 -39 4h-215l-14 -39h26q45 0 66 -15q18 -12 18 -39q0 -20 -10 -45l-195 -565h109q53 0 82 19 q31 16 51 63l23 62h256q-33 -98 -37 -107q-25 -55 -74 -74q-31 -12 -74 -12h-549q-43 0 -59 25q-4 8 -4 22z" />
<glyph unicode="D" horiz-adv-x="897" d="M0 0l285 801h612q43 0 57 -25q4 -8 4 -20v-4q0 -25 -16 -64l-217 -604q-6 -18 -18 -37q-35 -47 -95 -47h-612zM285 49h92q80 0 115 64q4 8 28 77l166 461q12 37 12 54q0 37 -49 47q-6 2 -28 2h-218l-12 -37h25q39 0 59.5 -12.5t20.5 -38.5q0 -20 -7 -39z" />
<glyph unicode="E" horiz-adv-x="899" d="M0 47v4q0 20 18 70l213 598q8 20 23 37q35 45 96 45h524q68 0 84 -27q10 -14 11 -26v-7q0 -14 -17 -59l-22 -74h-279l12.5 35t10.5 28t4 13v14v2q0 35 -39 48q-20 4 -39 4h-215l-14 -39h26q45 0 66 -15q18 -12 18 -39q0 -20 -10 -45l-57 -170h368l-16 -47h-504l-12 -39 h22q55 0 76 -20q10 -10 10 -35q0 -23 -16 -72l-66 -182h109q53 0 82 19q31 16 51 63l23 62h256q-33 -98 -37 -107q-25 -55 -74 -74q-31 -12 -74 -12h-549q-43 0 -59 25q-4 8 -4 22z" />
<glyph unicode="F" horiz-adv-x="831" d="M0 47v4q0 20 18 70l213 598q8 20 23 37q35 45 96 45h524q68 0 84 -27q10 -14 11 -26v-7q0 -14 -17 -59l-22 -74h-279l12.5 35t10.5 28t4 13v14v2q0 35 -39 48q-20 4 -39 4h-215l-14 -39h26q45 0 66 -15q18 -12 18 -39q0 -20 -10 -45l-57 -170h348l-17 -47h-483l-12 -39 h22q55 0 76 -20q10 -10 10 -34.5t-18 -72.5l-82 -231h-195q-43 0 -59 25q-4 8 -4 22z" />
<glyph unicode="G" horiz-adv-x="899" d="M0 47v4q0 20 18 70l213 598q8 20 23 37q35 45 96 45h524q68 0 84 -27q10 -14 11 -26v-7q0 -14 -17 -59l-22 -74h-279l12.5 35t10.5 28t4 13v14v2q0 35 -39 48q-20 4 -39 4h-215l-14 -39h26q45 0 66 -15q18 -12 18 -39q0 -20 -10 -45l-195 -565h109q53 0 82 19 q31 16 51 63l47 131q7 17 7 29q0 25 -29 26q-57 4 -76 5l14 40h373l-86 -260q-23 -72 -82 -90q-31 -12 -74 -12h-549q-43 0 -59 25q-4 8 -4 22z" />
<glyph unicode="H" horiz-adv-x="997" d="M0 0l283 801h278l-135 -391h348l14 39h-24q-55 0 -76 20q-10 10 -10 32.5t16 71.5l82 228h287l-281 -801h-278l119 360h-349l-14 -38h25q55 0 75 -21q10 -10 11 -33q0 -31 -17 -73l-69 -195h-285z" />
<glyph unicode="I" horiz-adv-x="458" d="M0 47v4q0 23 14 58l162 466h139l15 39h-25q-53 0 -76 23q-10 10 -10 33q0 25 14 67l23 64h184q49 0 62 -29q6 -10 6 -20q0 -27 -14 -62l-242 -690h-172q-29 0 -45 4q-35 10 -35 43z" />
<glyph unicode="J" horiz-adv-x="532" d="M-416 -96q0 16 17 61l6 12h262q-6 -18 -6 -20t-1 -7t-1 -7q0 -33 35 -45q20 -4 32 -4h13q70 0 88 32q2 2 24 68l205 581h137l15 39h-25q-51 0 -74 23q-12 12 -12 33q0 18 16 67h-2l23 64h184q51 0 64 -29q4 -6 4 -20q0 -27 -15 -62l-268 -766q-10 -25 -26 -45 q-31 -33 -86 -33h-519q-55 0 -75 21q-14 14 -15 31v6z" />
<glyph unicode="K" horiz-adv-x="956" d="M0 47v4q0 20 18 70l170 477h-2l70 203h197q49 0 61 -29q4 -6 4 -20q0 -33 -12 -62l-92 -246h235l15 37h-54q-53 0 -63 19q-9 18 12 43l195 258h311l-303 -387l82 -414h-189q-61 0 -84 20q-25 20 -32 72l-52 305h-223l-14 -39h24q53 0 74 -20q12 -12 12 -35q0 -25 -18 -72 l-76 -231h-200q-46 0 -62 25q-4 6 -4 22z" />
<glyph unicode="L" horiz-adv-x="770" d="M0 43q0 20 6 39l211 598q12 43 33 70l2 4l20 20q33 27 76 27h195l-224 -617q-6 -20 -22 -43q-20 -31 -45 -41q-31 -14 -76 -14h-26l-15 -37h215q31 0 43 2q45 12 72 47l2 4l8 13q29 70 31 78h276q-43 -117 -55 -134l-4 -6q-16 -20 -29 -28q-35 -25 -102 -25h-524 q-65 0 -68 43z" />
<glyph unicode="M" horiz-adv-x="1259" d="M-25 0l285 801h272q61 0 80 -43q10 -20 11 -58v-477l204 578h273q61 0 80 -43q10 -20 10 -58v-700h-195q-43 0 -57 8q-43 18 -43 82v508q0 18 4 43q3 15 6 25q12 25 33 32q2 0 9 3.5l11 5.5q29 4 50 4l12 37h-117l-260 -748h-215q-41 0 -55 8q-45 18 -45 82v508 q0 18 4 43l8 25q12 25 33 32q2 0 8 3.5t10 5.5q29 4 49 4l13 37h-119l-258 -748h-101z" />
<glyph unicode="N" horiz-adv-x="933" d="M0 0l285 801h311q63 0 82 -43q8 -16 8 -58v-477l205 578h96l-280 -801h-215q-41 0 -56 8q-45 18 -45 82v508q0 18 4 43l8 25q12 25 33 32q2 0 9.5 3.5l11.5 5.5q29 4 47 4l12 37h-156l-262 -748h-98z" />
<glyph unicode="O" horiz-adv-x="894" d="M0 45v2q0 18 16 62l213 600q8 23 21 41q23 33 55 45q23 6 43 6h563q45 0 60 -25q4 -8 4 -20v-4q0 -25 -17 -64l-217 -604q-6 -18 -18 -37q-35 -47 -94 -47h-568q-61 0 -61 45zM270 49h92q80 0 115 64q10 23 31 77l164 461q12 37 12 54q0 39 -47 47q-6 2 -31 2h-217 l-12 -37h24q37 0 60 -12q20 -12 20 -39q0 -20 -6 -39z" />
<glyph unicode="P" horiz-adv-x="933" d="M0 0l252 709q8 23 20 41q23 31 54 43q29 8 45 8h563q45 0 57 -25q6 -10 6 -20v-4q0 -25 -16 -64l-145 -405q-2 -8 -21 -35q-35 -47 -94 -47h-365l-69 -201h-287zM373 254h92q80 0 115 61q14 27 30 76l95 262q12 37 12 54q0 40 -49 49q-6 2 -31 2h-215l-12 -37h22 q39 0 62 -12q18 -10 18 -39q0 -23 -6 -39z" />
<glyph unicode="Q" horiz-adv-x="897" d="M0 45v2q0 18 16 62l213 600q8 23 21 41q23 33 55 45q23 6 43 6h563q45 0 60 -25q4 -8 4 -20v-4q0 -25 -17 -64l-217 -604q-6 -18 -18 -37q-35 -47 -94 -47h-568q-61 0 -61 45zM231 -63l13 36h217q23 0 28 -2q49 -9 50 -49q0 -14 -13 -51q-8 -25 -8 -41q0 -27 23 -39 q18 -10 59 -10h25l-15 -37h-215q-5 0 -12.5 -0.5t-10.5 -0.5q-5 0 -7 1q-49 9 -50 49q0 10 15 53q6 18 6 39q0 27 -20.5 39.5t-59.5 12.5h-25zM270 49h92q80 0 115 64q10 23 31 77l164 461q12 37 12 54q0 39 -47 47q-6 2 -31 2h-217l-12 -37h24q37 0 60 -12q20 -12 20 -39 q0 -20 -6 -39z" />
<glyph unicode="R" horiz-adv-x="942" d="M0 0l252 709q8 23 20 41q23 31 54 43q29 8 45 8h563q45 0 57 -25q6 -10 6 -20v-4q0 -25 -16 -64l-145 -405q-2 -8 -21 -35q-29 -45 -82 -47q35 -2 47 -25q4 -6 4 -20v-4q0 -25 -16 -64l-29 -88h-266l37 98q12 37 12 54q0 40 -49 49h-117l-69 -201h-287zM373 254h92 q80 0 115 61q6 12 28 76l94 262q14 43 15 54q0 40 -49 49q-6 2 -31 2h-215l-14 -37h24q39 0 59.5 -12.5t20.5 -38.5q0 -23 -6 -39z" />
<glyph unicode="S" horiz-adv-x="899" d="M0 49v8q0 20 14 58l25 67h260q-6 -16 -11 -31.5t-7 -24.5t-2 -11q-4 -16 -5 -21q0 -25 21 -37q18 -12 47 -12h12q72 0 90 37q2 4 10.5 29.5l30 89l43.5 125.5q8 23 -4 39q-12 14 -63 14h-219q-84 0 -105 27q-6 8 -6 20q0 16 10 43l90 252q4 12 17 29q23 33 55 45 q20 6 39 6h494q72 0 84 -4q23 -4 34 -13q16 -10 17 -39q0 -25 -15 -59l-22 -70h-258l14 39q12 37 12 54q0 37 -49 47q-6 2 -30 2h-215l-13 -37h25q39 0 59.5 -12.5t20.5 -38.5q0 -16 -8 -37l-39 -115q-4 -12 -7 -20q-12 -31 0 -49q10 -16 62 -17h229q84 0 101 -29 q6 -9 6 -18q0 -10 -13 -41l-92 -266q-8 -20 -16 -31q-35 -47 -98 -47h-525q-55 0 -71 8q-9 3 -19 12q-10 11 -10 29z" />
<glyph unicode="T" horiz-adv-x="714" d="M-29 752l19 49h864l-18 -49h-394l-12 -39h27q43 0 63.5 -14.5t20.5 -39.5q0 -20 -11 -45l-213 -614h-194q-45 0 -60 25q-4 8 -4 22v4q0 20 19 70l223 631h-330z" />
<glyph unicode="U" horiz-adv-x="948" d="M0 43v6q0 25 16 64l246 688h264l-233 -651q-12 -37 -12 -54q0 -40 49 -49q6 -2 28 -2h217l13 39h-25q-41 0 -59 10q-20 12 -21 39q0 20 6 39l224 629h288l-256 -709q-10 -29 -20 -43q-22 -31 -55 -43q-23 -6 -43 -6h-564q-47 0 -59 23q-4 8 -4 20z" />
<glyph unicode="V" horiz-adv-x="720" d="M74 100v701h192q41 0 58 -10q43 -18 43 -82v-516q0 -20 -5 -46q-2 -10 -6 -22q-12 -27 -32 -35q-12 -4 -21 -6q-29 -4 -47 -4l-14 -35h164l264 756h98l-283 -801h-321q-63 0 -82 43q-8 16 -8 57z" />
<glyph unicode="W" horiz-adv-x="1202" d="M74 100v701h192q41 0 58 -10q43 -18 43 -82v-516q0 -20 -5 -46q-2 -10 -6 -22q-12 -27 -32 -35q-12 -4 -21 -6q-29 -4 -47 -4l-14 -35h112l267 756h194q39 0 55 -10q45 -18 45 -82v-516q0 -20 -4 -46q-2 -6 -5 -14l-3 -8q-12 -27 -33 -35l-18 -6q-29 -4 -49 -4l-12 -35 h112l264 756h101l-285 -801h-272q-61 0 -80 43q-10 20 -10 57l2 426l-189 -526h-270q-63 0 -82 43q-8 16 -8 57z" />
<glyph unicode="X" horiz-adv-x="909" d="M-70 0l369 385l-88 416h278q70 -322 70 -330l324 330h92l-397 -412h-134l-12 -37h43q61 0 92 -24q12 -12 17 -21q14 -20 20 -53l53 -254h-278l-64 303l-290 -303h-95z" />
<glyph unicode="Y" horiz-adv-x="839" d="M-43 0l20 47h177q22 0 43 6t30 37q10 35 11 76v635h266v-434q-3 -49 -6 -68q-3 -15 -6 -25q-12 -25 -33 -32q-2 0 -9.5 -3t-11.5 -6q-29 -4 -49 -4l-12 -36h131l315 608h76l-344 -654q-46 -86 -111 -116q-63 -31 -200 -31h-287z" />
<glyph unicode="Z" horiz-adv-x="696" d="M-72 0l416 614q35 66 80 84q29 14 72 15h16l16 39h-462l16 49h666l-386 -617q-39 -63 -83 -84q-29 -14 -72 -14h-14l-15 -39h494l-17 -47h-727z" />
<glyph unicode="[" horiz-adv-x="983" d="M0 -39q0 20 18 70l279 778q12 29 20 39q34 43 99 43h545q68 0 83 -25q8 -10 9 -28v-7q0 -18 -15 -59l-24 -74h-277q20 59 25 78q0 4 1 8l1 4v5q0 35 -39 47q-20 4 -41 4h-215l-12 -39h26q43 0 64 -14q18 -12 18 -41q0 -25 -8 -43l-260 -748h109q52 0 79 18q35 18 54 64 q18 49 22 61h256q-33 -98 -37 -106q-25 -55 -73 -74q-31 -12 -74 -12h-570q-43 0 -59 24q-4 8 -4 23v4z" />
<glyph unicode="\" horiz-adv-x="624" d="M-115 938l54 41l774 -1118l-54 -39z" />
<glyph unicode="]" horiz-adv-x="993" d="M0 -31q0 18 14 60l25 73h276q-20 -59 -24 -77v-13v-4q0 -35 39 -47q20 -4 39 -4h215l14 41h-29q-47 0 -63 12q-18 12 -19 41q0 25 9 43l262 748h-111q-52 0 -80 -19q-35 -18 -53 -63q-18 -49 -22 -62h-256q35 104 36 109q23 53 74 72q31 12 74 12h569q43 0 60 -25 q4 -8 4 -22v-4q0 -20 -19 -70l-276 -778q-8 -20 -23 -37q-35 -45 -96 -45h-547q-68 0 -84 24q-8 10 -8 29v6z" />
<glyph unicode="^" horiz-adv-x="600" d="M0 672q201 74 266 131q43 37 88 37t74 -37q39 -51 215 -131q-125 -27 -242 6q-49 16 -71 29q-20 -10 -86 -29q-140 -35 -244 -6z" />
<glyph unicode="_" horiz-adv-x="600" d="M-150 -106l17 49h895l-19 -49h-893z" />
<glyph unicode="`" horiz-adv-x="456" d="M18.5 770.5q-18.5 63.5 38.5 77.5q66 18 123 -39q58 -58 277 -147q-137 -35 -279 6q-141 39 -159.5 102.5z" />
<glyph unicode="a" horiz-adv-x="823" d="M0 53v2q0 18 12 49l62 177q25 53 67 71q8 6 29 8q25 4 59 5h308l65 190h-70q-33 0 -49 -4q-27 -8 -28 -10q-39 -20 -58 -64q-8 -18 -20 -59h-244l33 96q2 2 5 11.5t7 15.5q20 31 60 49q23 10 77 10h502q41 0 55 -14q12 -12 13 -31v-2q0 -20 -17 -59l-143 -400 q-12 -35 -18 -43q-4 -6 -19 -20q-31 -31 -82 -31h-518q-51 0 -72 16q-16 12 -16 37zM258 96q0 -33 37 -45q15 -6 37 -6h223l12 39h-14q-68 0 -82 20q-8 10 -8 29q0 23 6 39l51 147h-94q-57 0 -94 -36q-14 -14 -21 -31q-4 -8 -20 -53q-25 -61 -29 -78q-4 -21 -4 -25z" />
<glyph unicode="b" horiz-adv-x="823" d="M0 49q0 16 10 43l234 662h190q51 0 64 -29q4 -6 4 -20q0 -27 -15 -62l-14 -43h344q63 0 64 -47q0 -12 -9 -37l-139 -403q-16 -47 -28 -64l-3 -4q-8 -12 -20 -20q-31 -25 -76 -25h-543q-23 0 -38 6q-25 12 -25 43zM147 45h215q25 0 33 2q57 10 84 49q14 20 25 54l90 262 q18 55 24 75q1 6 1 12q0 52 -72 52h-92l-17 -49l-116 -330q-2 -14 -21 -39q-16 -25 -47 -39q-25 -10 -70 -10h-22z" />
<glyph unicode="c" horiz-adv-x="827" d="M0 43v6q0 23 16 62l148 405q12 29 20 39q33 45 97 45h518q59 0 78 -20q10 -10 10 -33t-13 -60l-24 -69h-262q20 59 20 65q2 8 2 21v2q0 37 -39 45q-16 4 -34 4h-205l-15 -39h25q37 0 55 -8q27 -12 27 -39q0 -31 -14 -66l-127 -358h73q82 0 117 68q12 23 29 69h262 l-39 -102q-25 -51 -72 -70q-23 -10 -71 -10h-521q-45 0 -57 25q-4 12 -4 18z" />
<glyph unicode="d" horiz-adv-x="876" d="M0 45v4q0 25 16 64l146 403q6 18 18 37q35 47 96 47h345l53 154h284l-233 -662q-10 -29 -20 -43q-23 -31 -54 -43q-20 -6 -45 -6h-543q-47 0 -59 25q-4 6 -4 20zM260 96q0 -40 49 -49q6 -2 31 -2h215l12 39h-22q-43 0 -61.5 10t-18.5 39q0 23 6 39l133 379h-92 q-80 0 -115 -64q-14 -27 -30 -75l-95 -262q-12 -38 -12 -54z" />
<glyph unicode="e" horiz-adv-x="827" d="M0 45v2q0 25 14 59l144 400q10 29 20 43q4 6 19 20q31 31 79 31h519q53 0 73 -16q16 -12 17 -37v-2q0 -18 -13 -49l-63 -177q-20 -51 -68 -71q-23 -8 -26 -8q-25 -4 -62 -4h-307l-63 -191h67q33 0 49 4q27 8 29 10q43 23 57 64l23 59h244l-33 -96l-14 -29 q-18 -29 -58 -47q-23 -10 -78 -10h-503q-39 0 -54 14q-12 13 -12 31zM315 516h17q66 0 80 -20q8 -10 8 -29q0 -25 -6 -39l-52 -147h97q57 0 94 36q14 14 20 31q4 8 21 53q16 43 27 78q4 20 4 25q0 33 -35 45q-15 6 -37 6h-223z" />
<glyph unicode="f" horiz-adv-x="598" d="M-31 -96q0 14 21 69l262 746q10 25 20 37q35 45 99 45h434l-17 -49h-385l-12 -39h27q43 0 63.5 -14.5t20.5 -39.5q0 -20 -10 -45l-19 -57h178l-16 -47h-313l-15 -41h25q55 0 76 -20q10 -10 10 -33q0 -27 -19 -72l-172 -491h-192q-43 0 -60 24q-6 12 -6 23v4z" />
<glyph unicode="g" d="M-82 -94q0 14 16 59l7 15h260q-6 -18 -6 -23v-12q0 -33 34 -45q20 -4 31 -4h14q70 0 88 32q2 4 25 66l31 92h-342q-41 0 -53 6q-23 12 -23 39t14 57l111 314q10 33 20 47q33 51 101 51h545q47 0 59 -22q4 -6 4 -25q0 -25 -14 -61l-201 -568q-6 -16 -29 -43 q-31 -33 -86 -33h-516q-59 0 -78 19q-12 12 -12 31v8zM262 184q0 -31 33 -43q16 -6 39 -6h100l111 305q25 49 65 66q25 10 82 10l15 39h-226q-76 0 -112 -61q-16 -37 -23 -56l-35.5 -101l-22.5 -64.5t-12.5 -33t-6.5 -16.5t-3 -8q-4 -15 -4 -31z" />
<glyph unicode="h" horiz-adv-x="870" d="M0 0l285 801h190q51 0 64 -29q4 -6 4 -20q0 -27 -15 -62l-30 -90h370q45 0 58 -22q6 -9 6 -25q0 -10 -8 -39l-185 -514h-268q168 465 170 471q6 20 6 33v2q0 33 -39 45q-16 4 -28 4h-230l-12 -39h24q37 0 56 -8q25 -12 24 -41v-2q0 -20 -12 -51l-145 -414h-285z" />
<glyph unicode="i" horiz-adv-x="446" d="M0 47v4q0 23 14 58l162 466h139l15 39h-25q-53 0 -76 23q-10 10 -10 33q0 25 14 67l23 64h184q49 0 62 -29q6 -10 6 -20q0 -27 -14 -62l-242 -690h-172q-29 0 -45 4q-35 10 -35 43z" />
<glyph unicode="j" horiz-adv-x="475" d="M-352 -147l20 47h215q70 0 88 32q6 6 27 68l203 575h139l12 39h-22q-53 0 -76 23q-10 10 -10 33q0 25 14 67h-2l23 64h186q49 0 61 -29q4 -6 4 -20q0 -27 -14 -62l-266 -760q-8 -20 -29 -45q-31 -33 -86 -32h-487z" />
<glyph unicode="k" horiz-adv-x="964" d="M0 47v4q0 20 18 70l238 680h215q51 0 64 -29q4 -6 4 -20q0 -27 -15 -62l-125 -344h238l12 37h-53q-55 0 -64 16q-9 18 13 43l194 258h312l-303 -387l147 -313h-219q-53 0 -76 20q-27 23 -43 72l-84 207h-223l-14 -41h24q55 0 76 -20q10 -10 10 -33q0 -31 -16 -72 l-43 -133h-221q-46 0 -62 25q-4 6 -4 22z" />
<glyph unicode="l" horiz-adv-x="440" d="M0 47v4q0 23 14 58l242 692h184q51 0 64 -29q4 -6 4 -20q0 -27 -14 -62l-242 -690h-172q-29 0 -45 4q-35 10 -35 43z" />
<glyph unicode="m" horiz-adv-x="1314" d="M0 0l184 518q4 12 17 33q34 49 98 49h1024q45 0 57 -22q6 -8 6 -23q0 -18 -8 -41l-184 -514h-266l89 251l61.5 170t17.5 52q6 22 6 31v2q0 33 -39 45q-16 4 -29 4h-227l-2 -2l-12 -37h24q37 0 55 -8q25 -12 25 -41v-2q0 -20 -12 -51l-146 -414h-268q168 465 170 471 q6 20 6 33v2q0 33 -39 45q-16 4 -28 4h-230l-12 -39h24q37 0 56 -8q25 -12 24 -41v-2q0 -20 -12 -51l-145 -414h-285z" />
<glyph unicode="n" horiz-adv-x="860" d="M0 0l184 518q4 12 17 33q34 49 98 49h569q45 0 58 -22q6 -9 6 -25q0 -10 -8 -39l-185 -514h-268q168 465 170 471q6 20 6 33v2q0 33 -39 45q-16 4 -28 4h-230l-12 -39h24q37 0 56 -8q25 -12 24 -41v-2q0 -20 -12 -51l-145 -414h-285z" />
<glyph unicode="o" horiz-adv-x="817" d="M0 45v2q0 18 16 62l142 399q10 29 20 43q22 31 55 43q20 6 46 6h542q45 0 58 -25q6 -10 6 -20v-4q0 -20 -19 -64l-143 -403q-6 -18 -18 -37q-35 -47 -97 -47h-547q-61 0 -61 45zM281 49h92q80 0 114 64q6 12 29 75l94 263q14 43 15 53q0 40 -50 49q-6 2 -30 2h-215 l-15 -39h25q41 0 59 -10q23 -12 23 -39q0 -18 -8 -39z" />
<glyph unicode="p" horiz-adv-x="837" d="M-55 -152l233 660q10 29 21 43q23 31 53 43q23 6 45 6h543q45 0 57 -25q6 -10 6 -20v-4q0 -25 -16 -64l-146 -403q-6 -18 -18 -37q-35 -47 -96 -47h-344l-54 -152h-284zM299 49h92q80 0 115 64q14 27 31 75l94 263q12 37 12 53q0 40 -49 49q-6 2 -31 2h-215l-12 -39h22 q43 0 61.5 -10t18.5 -39q0 -25 -6 -39z" />
<glyph unicode="q" d="M0 47q0 18 6 37l141 403q12 41 27 64l2 4q8 12 21 20q31 25 75 25h543q25 0 39 -6q25 -12 25 -43q0 -16 -11 -43l-231 -662h-193q-49 0 -61 27q-4 6 -4 23q0 33 12 61l17 43h-345q-63 0 -63 47zM262 113q-1 -6 -1 -12q0 -52 73 -52h92l16 49l117 330q2 14 21 39 q16 25 47 39q25 10 67 10h25l12 39h-215q-25 0 -33 -2q-53 -8 -82 -49q-14 -20 -24 -53l-90 -263q-19 -55 -25 -75z" />
<glyph unicode="r" horiz-adv-x="821" d="M0 0l170 479q10 31 18 51q8 16 15 25q18 25 39 33q20 12 57 12h516q66 0 80 -20q10 -10 10 -29v-8q0 -18 -14 -56l-23 -69h-262h-2q22 58 25 67q2 6 2 19v2q0 33 -37 45q-16 4 -35 4h-209q0 -2 -12 -39h22q43 0 62 -10q20 -12 20 -39q0 -23 -10 -49l-147 -418h-285z" />
<glyph unicode="s" horiz-adv-x="757" d="M0 49v8q0 20 14 58l25 67h260q-6 -16 -11 -31.5t-7 -24.5t-2 -11q-4 -16 -5 -21q0 -25 21 -37q18 -12 47 -12h12q72 0 90 37q12 25 52 147q8 25 -4 41q-10 12 -66 13h-219q-86 0 -105 26q-6 10 -6 22.5t6 28.5l60 160q6 20 14 31q22 31 55 43q23 6 39 6h478q63 0 69 -2 q18 -2 35 -14q14 -12 14 -37q0 -23 -12 -60l-27 -69h-233l12 37q14 43 15 53q0 37 -50 47q-6 2 -28 2h-209l-12 -37h22q39 0 57 -10q20 -12 21 -41q0 -22 -6 -37l-13 -29q-12 -29 3 -49q10 -16 59 -16h217q84 0 102 -31q4 -6 4 -16v-2q0 -14 -10 -41l-57 -170 q-6 -15 -19 -31q-35 -47 -96 -47h-506q-55 0 -71 8q-9 3 -19 12q-10 11 -10 29z" />
<glyph unicode="t" horiz-adv-x="499" d="M0 47v4q0 20 18 70l213 598q4 8 23 37q35 45 96 45h185l-66 -201h176l-16 -47h-312l-14 -41h25q53 0 73 -20q12 -12 12.5 -33t-20.5 -72l-135 -387h-195q-43 0 -59 25q-4 8 -4 22z" />
<glyph unicode="u" horiz-adv-x="866" d="M0 47.5q0 18.5 6 38.5l184 514h269q-160 -442 -168 -473q-6 -22 -6 -31v-2q0 -33 37 -45q16 -4 28 -4h230l14 39h-27q-37 0 -55 8q-25 12 -25 41v2q0 20 13 51l145 414h287l-215 -600h-654q-47 0 -59 23q-4 6 -4 24.5z" />
<glyph unicode="v" horiz-adv-x="645" d="M74 0v600h272v-381q0 -12 -1 -27.5t-2 -24.5t-1 -15l-8 -25q-12 -25 -33 -33q-2 0 -9 -3t-11 -5q-14 -2 -48 -2l-14 -39h131l316 555h75l-344 -600h-323z" />
<glyph unicode="w" horiz-adv-x="1193" d="M74 0v600h272v-381q0 -12 -1 -27.5t-2 -24.5t-1 -15l-8 -25q-12 -25 -33 -33q-2 0 -9 -3t-11 -5q-14 -2 -48 -2l-14 -39h90l318 555h280v-381q-3 -49 -6 -67q-3 -15 -6 -25q-12 -23 -35 -33q-2 0 -8 -3l-10 -5q-14 -2 -49 -2l-13 -39h90l316 555h76l-344 -600h-287v475 l-273 -475h-284z" />
<glyph unicode="x" horiz-adv-x="700" d="M-59 0l272 285l-68 315h281q47 -217 47 -227l223 227h92l-296 -311h-134l-12 -37h43q61 0 92 -25q14 -14 17 -18q14 -20 20 -55l35 -154h-279l-45 205l-194 -205h-94z" />
<glyph unicode="y" horiz-adv-x="583" d="M-227 -145l20 47h174q22 0 43 6q25 6 33 37q10 35 10 75v582h277v-381q-3 -49 -6 -67l-9 -25q-12 -25 -32 -33q-2 0 -9.5 -3t-11.5 -5q-14 -2 -47 -2l-12 -39h129l315 555h78l-344 -600h-2q-46 -86 -111 -117q-63 -31 -198 -30h-297z" />
<glyph unicode="z" horiz-adv-x="598" d="M-31 0l287 416q45 66 88 84q29 14 74 14h6l14 39h-321l14 47h526l-254 -416q-39 -63 -84 -84q-29 -14 -71 -14h-15l-14 -39h342l-14 -47h-578z" />
<glyph unicode="{" horiz-adv-x="710" d="M0 53v6q0 23 14 60l66 207q14 55 -19 63q-4 0 -15 3l-19 5q80 20 123 127l67 193q23 53 74 71q31 12 74 13h403l-16 -49h-150q-106 0 -131 -74l-72 -201q-29 -80 -123 -80q61 -6 74 -24q10 -14 10 -29q0 -16 -36 -121q-37 -106 -35 -121v-2q0 -35 41 -47q20 -4 37 -4h180 l-17 -49h-438q-68 0 -84 27q-8 10 -8 26z" />
<glyph unicode="|" horiz-adv-x="546" d="M4 -225q0 20 14 55l455 1288h47q49 0 62 -26q6 -10 6 -23q0 -25 -15 -59l-454 -1286h-33q-31 0 -47 4q-35 10 -35 43v4z" />
<glyph unicode="}" horiz-adv-x="702" d="M0 0l16 49h150q106 0 131 74l72 201q29 80 123 79q-61 6 -74 25q-10 14 -10 29q0 16 36 121q37 106 35 120v2q0 35 -41 48q-20 4 -37 4h-180l17 49h438q68 0 84 -27q8 -10 8 -26v-7q0 -23 -14 -59l-66 -207q-14 -55 19 -63q4 0 15 -3t19 -6q-80 -20 -123 -127l-67 -190 q-25 -55 -74 -74q-31 -12 -74 -12h-403z" />
<glyph unicode="~" horiz-adv-x="600" d="M0 727q39 70 82 96q41 25 82 25q35 0 63 -4q45 -10 107 -51q57 -39 92 -52q12 -4 41 -10q45 -8 68 4q25 14 32 23q12 12 19 24l53 -10q-23 -49 -64 -84q-41 -37 -86 -39q-47 -4 -73 2q-35 6 -109 49l-92 52q-29 14 -45 16q-31 6 -47 0q-20 -8 -31 -14q-14 -8 -33 -37z " />
<glyph unicode="&#xa1;" horiz-adv-x="399" d="M-55 -190q0 29 12 57l164 467h137l14 39h-22q-55 0 -76 20q-10 10 -10 33q0 27 14 70l21 61h204q51 0 64 -27q4 -6 4 -20q0 -27 -14 -61l-242 -691h-190q-31 0 -48 4q-33 8 -32 43v5z" />
<glyph unicode="&#xa2;" horiz-adv-x="808" d="M0 43v6q0 23 16 62l148 405q12 29 20 39q33 45 97 45h225l49 131h49l-49 -131h244q59 0 78 -20q10 -10 10 -33t-13 -60l-24 -69h-262q20 59 20 65q2 8 2 21v2q0 37 -39 45q-16 4 -34 4h-205l-15 -39h25q37 0 55 -8q27 -12 27 -39q0 -31 -14 -66l-127 -358h73q82 0 117 68 q12 23 29 69h262l-39 -102q-25 -51 -72 -70q-23 -10 -71 -10h-240l-45 -129h-55l47 129h-228q-45 0 -57 25q-4 12 -4 18z" />
<glyph unicode="&#xa3;" horiz-adv-x="991" d="M-117 0l17 47h161l113 311h191q53 0 73 -20q12 -12 13 -35q0 -20 -21 -72l-61 -184h446l-16 -47h-916zM10 397l19 47h176l96 275q8 20 23 37q35 45 98 45h545q68 0 84 -27q8 -10 8 -26v-7q0 -18 -15 -59l-24 -74h-277q23 63 25 76v14v2q0 35 -39 48q-20 4 -39 4h-215 l-12 -39h26q43 0 64 -15q18 -12 18 -38.5t-8 -45.5l-57 -170h348l-18 -47h-826z" />
<glyph unicode="&#xa4;" horiz-adv-x="587" d="M0 76q0 6 2 10q3 6 12 18l39 50l6 6q-2 2 -4 5t-2 5q-33 66 -33 129v2q0 63 31 125q8 14 25 39q12 16 22 27q2 2 6.5 5t6.5 5q0 2 -2.5 2t-4.5 2l-49 39q-8 6 -14 12q-2 2 -2 8q0 8 4 13q10 10 23 16q20 12 34 10q8 0 11 -2q12 -6 16 -10l51 -41q4 0 4 -4q10 6 23 8 q45 16 86 16t86 -16q8 -2 18.5 -6l18.5 -7t14 -7q9 -6 25 -19q12 -8 28 -24q4 8 8 12l41 51q10 12 15 12q8 2 16 -2q10 -10 17 -20q14 -18 12 -35q0 -6 -2 -10q-6 -12 -13 -21l-38 -49l-2 -2q-2 -2 -5 -2q31 -61 31 -125v-2q0 -70 -33 -129q-10 -18 -26 -39l-8 -8 q6 -3 18 -12l47 -39q8 -6 14 -13q4 -4 5 -8q0 -8 -5 -12l-22 -16q-23 -12 -37 -11q-4 0 -8 2q-16 8 -19 11l-51 41l-4 4q-63 -39 -141 -39q-80 0 -148 43q-4 4 -7 6t-7 4t-10 6l-8 8v-2q-4 -8 -11 -14l-41 -53q-10 -12 -16 -13q-8 -2 -16 2q-6 6 -15 21q-12 23 -12 37z M84 299q0 -63 37 -119q4 -6 20 -22l27 -27q53 -39 122.5 -39t123.5 39l26 27q4 4 7.5 7t6.5 5t5 5t4 5q35 53 35 119q0 39 -17 82q-34 77 -110 111q-43 16 -80 16q-35 0 -78 -16q-80 -35 -113 -111q-16 -43 -16 -82z" />
<glyph unicode="&#xa5;" horiz-adv-x="800" d="M-43 0l23 47h174q22 0 43 6q20 6 32 37q4 14 9 55h-181l17 48h770l-19 -48h-262q-47 -84 -108 -114q-66 -31 -199 -31h-299zM92 229l17 50h131v522h274v-434q0 -12 -1 -27.5t-2 -25t-1 -15.5l-8 -25q-12 -25 -33 -32q-2 0 -9 -3t-11 -6q-29 -4 -121 -4h-236zM539 229 l295 572h75l-274 -522h242l-19 -50h-319z" />
<glyph unicode="&#xa7;" horiz-adv-x="839" d="M-139 -324q0 27 12 60l25 67h262l-23 -67q-2 -8 -2 -21q0 -25 21 -37q18 -12 47 -12h12q72 0 88 35q4 10 86 244q8 25 -4 41q-12 14 -63 14h-220q-86 0 -104 25q-6 8 -6 20q0 20 10 45l229 631q4 12 17 29q23 33 55 45q20 6 39 6h494q72 0 84 -4q23 -4 34 -13 q16 -10 17 -39q0 -25 -15 -59l-22 -70h-258l14 39q12 37 12 54q0 37 -49 47q-6 2 -30 2h-215l-13 -37h25q39 0 59.5 -12.5t20.5 -38.5q0 -16 -8 -37l-39 -115q-4 -12 -7 -20q-12 -31 0 -49q10 -16 62 -17h229q84 0 101 -29q6 -9 6 -18q0 -10 -13 -41l-233 -645 q-10 -25 -16 -33q-35 -47 -97 -47h-524q-53 0 -74 10q-6 2 -16 12.5t-10 28.5v6zM256 342h23q41 0 61 -12q18 -10 18 -39q0 -25 -6 -39l-41 -113h2q0 -2 -3 -9t-5 -11q-12 -29 2 -49q10 -16 60 -17h63l98 273q8 23 -4 39q-12 12 -39 14h-217z" />
<glyph unicode="&#xa8;" horiz-adv-x="509" d="M0 686q0 18 10 39q12 43 37 57l16 9q16 4 37 4h109q29 0 33 -2q8 -4 12 -9q6 -4 6 -20q0 -23 -10 -47q-12 -35 -37 -51q-8 -6 -16 -9q-8 -4 -33 -4h-115q-25 0 -35 6q-14 7 -14 27zM299 684q0 20 10 41q12 40 37 55q4 4 16 8q12 6 37 7h109q23 0 31 -4l12 -7q8 -6 8 -22 q0 -14 -12 -45q-12 -35 -37 -51q-4 -4 -16 -9q-16 -4 -33 -4h-115q-23 0 -33 6q-14 9 -14 25z" />
<glyph unicode="&#xa9;" horiz-adv-x="636" d="M100 664v4q0 63 31 125q4 8 25 36q12 16 22 27l31 25q20 16 24 18q8 6 52 23q41 14 86 14t86 -14q43 -16 51 -23q4 -2 24 -18l29 -25q18 -18 25 -27q14 -18 22 -36q33 -66 33 -125v-4q0 -68 -33 -127q-6 -12 -26 -41q-14 -18 -39 -39q-6 -6 -13.5 -10.5t-11.5 -8.5 q-68 -43 -147.5 -43t-147.5 43q-4 4 -11 8.5t-13 10.5q-25 20 -39 39q-20 29 -27 41q-33 59 -33 127zM150 666q0 -66 38 -127q2 -2 9.5 -11.5t13.5 -15.5t16.5 -15.5t12.5 -11.5q59 -41 130.5 -41t131.5 41l12 11.5l16.5 15.5t13.5 15.5t9 11.5q39 61 39 127q0 43 -19 86 q-35 80 -118 116q-41 18 -84 18.5t-84 -18.5q-84 -37 -119 -116q-18 -43 -18 -86zM205 547q0 6 6 24l72 201q4 8 8 12q12 16 31 17h186q20 0 27 -8q4 -4 4 -11v-2q0 -6 -7 -20l-8 -25h-94q10 25 10 27v6q0 10 -14 14q-2 0 -5 1t-7 1h-72l-6 -14h8q16 0 23 -4q6 -3 6 -12 q0 -12 -2 -17l-68 -190h39q18 0 27 6q10 4 16 20q2 4 4 10.5l4 12.5h86q-10 -29 -10 -37q-8 -18 -27 -24q-12 -4 -24 -5h-193q-16 0 -18 9q-2 2 -2 8z" />
<glyph unicode="&#xaa;" horiz-adv-x="823" d="M0 53v2q0 18 12 49l62 177q25 53 67 71q8 6 29 8q25 4 59 5h308l65 190h-70q-33 0 -49 -4q-27 -8 -28 -10q-39 -20 -58 -64q-8 -18 -20 -59h-244l33 96q2 2 5 11.5t7 15.5q20 31 60 49q23 10 77 10h502q41 0 55 -14q12 -12 13 -31v-2q0 -20 -17 -59l-143 -400 q-12 -35 -18 -43q-4 -6 -19 -20q-31 -31 -82 -31h-518q-51 0 -72 16q-16 12 -16 37zM258 96q0 -33 37 -45q15 -6 37 -6h223l12 39h-14q-68 0 -82 20q-8 10 -8 29q0 23 6 39l51 147h-94q-57 0 -94 -36q-14 -14 -21 -31q-4 -8 -20 -53q-25 -61 -29 -78q-4 -21 -4 -25z" />
<glyph unicode="&#xab;" horiz-adv-x="700" d="M0 307l33 96l426 156l-39 -104l-291 -107l215 -104l-31 -88zM293 307l33 96l426 156l-39 -104l-291 -107l217 -104l-33 -88z" />
<glyph unicode="&#xad;" horiz-adv-x="421" d="M49 270l19 54h372l-16 -54h-375z" />
<glyph unicode="&#xae;" horiz-adv-x="638" d="M98 664v4q0 59 33 125q8 18 23 36q6 8 24 27l29 25q16 14 26 18q10 6 50 23q41 14 88 14q45 0 86 -14q39 -16 49 -23q10 -4 26 -18l29 -25q18 -18 25 -27q14 -18 22 -36q31 -61 31 -125v-4q0 -68 -33 -127q-10 -23 -24 -41q-10 -12 -41 -39q-6 -6 -13.5 -10.5t-11.5 -8.5 q-68 -43 -145 -43q-82 0 -150 43l-22 19q-31 27 -41 39q-20 29 -27 41q-33 59 -33 127zM150 666q0 -68 36 -127q2 -2 10.5 -11.5t14.5 -15.5l27 -27q59 -41 133 -41q72 0 131 41l26 27q6 6 14.5 15.5t10.5 11.5q37 59 37 127q0 47 -17 86q-35 78 -120 116q-39 18 -82 18.5 t-84 -18.5q-86 -39 -121 -116q-16 -39 -16 -86zM203 530l84 238q0 2 2 5t4 5t2 4q6 12 16 15q4 2 15 2h188q18 0 21 -8q2 -2 2 -7v-2q0 -4 -7 -20l-49 -135l-6 -13q-8 -12 -26 -16q12 0 16 -8q2 -2 2 -6v-2q0 -4 -6 -21l-10 -31h-91l13 33q4 16 4 19q0 12 -17 16h-38 l-23 -68h-96zM328 616h30q27 0 39 21q0 2 4.5 10t6.5 15l30 88q4 16 4 18q0 12 -16 16h-10h-72l-4 -12h6q12 0 20.5 -4t8.5 -12q0 -10 -2 -15z" />
<glyph unicode="&#xb0;" horiz-adv-x="264" d="M0 799q0 55 39 94t94 39t94 -39t39 -94.5t-39 -91.5q-43 -39 -94 -39q-55 0 -94 37t-39 94zM61 799q0 -31 20.5 -51.5t51.5 -20.5q29 0 49.5 20.5t20.5 51t-21 51.5q-18 18 -49 18t-51.5 -20t-20.5 -49z" />
<glyph unicode="&#xb1;" horiz-adv-x="700" d="M-41 0l18 47h654l-19 -47h-653zM0 377l16 47h213l99 276h204q51 0 64 -26q4 -6 4 -23q0 -25 -14 -59l-60 -168h213l-16 -53h-354l-13 -39h27q43 0 63.5 -14.5t20.5 -38.5q0 -20 -10 -46l-45 -133h-193q-29 0 -45 4q-35 10 -35 43v5q0 23 15 57l59 168h-213z" />
<glyph unicode="&#xb2;" horiz-adv-x="358" d="M72 518l20 60q8 12 27 20l106 68q37 23 47 47q20 59 21 61q0 10 -25 10h-2q-2 0 -7 -1t-7 -1q-14 -2 -23 -14q0 -2 -2 -3l-2 -3l-10 -25v-2h-90l8 27q4 12 8 20q6 8 17 13q12 6 14 6h33h174q6 0 10 -2q10 -4 10 -17q0 -6 -2 -10l-32 -94h-3q0 -8 -2 -10q-4 -10 -18 -25 q-10 -12 -39 -27l-115 -69h-43l-4 -12h219l-6 -17h-282z" />
<glyph unicode="&#xb3;" horiz-adv-x="952" d="M12 86q0 2 4 12.5l14.5 39l20.5 55.5h256q-8 -18 -18 -62q-16 -45 6 -63q15 -18 67 -19h109l64 182q25 59 32 72q18 25 35 35q33 20 90 20h25l12 39h-502l19 47h366l64 170q8 27 20 45q16 25 47 39.5t74 14.5h29l12 39h-215q-18 0 -43 -4q-47 -12 -72 -48l-2 -2 q-2 -2 -4 -6l-4 -8q-6 -8 -29 -76h-276l27 74q12 35 28 59l4 7q12 16 29 26q37 27 100 27h545q63 0 68 -45q0 -14 -6 -37l-209 -598q-14 -47 -31 -70l-2 -4q-2 -4 -21 -22q-31 -25 -75 -25h-570q-43 0 -65 12q-35 19 -23 74z" />
<glyph unicode="&#xb4;" horiz-adv-x="399" d="M0 662q218 89 276 147q57 57 123 39q57 -14 39 -77.5t-159 -102.5q-142 -41 -279 -6z" />
<glyph unicode="&#xb5;" horiz-adv-x="839" d="M-47 -96q0 23 14 57l223 639h269q-160 -442 -168 -473q-6 -22 -6 -31v-2q0 -33 37 -45q16 -4 28 -4h230l14 39h-27q-37 0 -55 8q-25 12 -25 41v2q0 20 13 51l145 414h287l-215 -600h-461l-51 -147h-172q-29 0 -45 4q-35 10 -35 45v2z" />
<glyph unicode="&#xb6;" horiz-adv-x="595" d="M-88 248q0 16 6 35l141 405q12 43 27 64l4 4q8 12 21 20q31 25 75 25h346l-2 -2h56q25 0 39 -6q25 -12 22 -43q-4 -29 -10 -43l-266 -707h-166l272 752h-57l-266 -752h-156l72 201h-97q-61 0 -61 47z" />
<glyph unicode="&#xb7;" horiz-adv-x="313" d="M0 244q0 22 18 67q18 53 56 76q2 2 10 6l12 6q15 6 49 7h170q37 0 52 -11q20 -12 20 -39q0 -16 -16 -59q-20 -61 -54 -82q-9 -6 -24 -12q-18 -6 -55 -6h-160q-35 0 -47 4q-6 2 -19 10q-12 13 -12 33z" />
<glyph unicode="&#x2219;" horiz-adv-x="313" d="M0 244q0 22 18 67q18 53 56 76q2 2 10 6l12 6q15 6 49 7h170q37 0 52 -11q20 -12 20 -39q0 -16 -16 -59q-20 -61 -54 -82q-9 -6 -24 -12q-18 -6 -55 -6h-160q-35 0 -47 4q-6 2 -19 10q-12 13 -12 33z" />
<glyph unicode="&#xb8;" horiz-adv-x="399" d="M0 -219h25q41 0 59 10q20 12 20 39q0 23 -6 41q-12 37 -12 51q0 41 47 49q6 2 31 2h217l12 -36h-24q-37 0 -60 -13q-20 -12 -20 -39q0 -20 6 -39q12 -37 12 -53q0 -40 -49 -49h-29h-217z" />
<glyph unicode="&#xb9;" horiz-adv-x="471" d="M0 47v4q0 23 14 58l199 567q31 78 -80 76h-31l19 49h340q49 0 61 -29q6 -10 6 -20q0 -27 -14 -62l-242 -690h-192q-29 0 -45 4q-35 10 -35 43z" />
<glyph unicode="&#xba;" horiz-adv-x="817" d="M0 45v2q0 18 16 62l142 399q10 29 20 43q22 31 55 43q20 6 46 6h542q45 0 58 -25q6 -10 6 -20v-4q0 -20 -19 -64l-143 -403q-6 -18 -18 -37q-35 -47 -97 -47h-547q-61 0 -61 45zM281 49h92q80 0 114 64q6 12 29 75l94 263q14 43 15 53q0 40 -50 49q-6 2 -30 2h-215 l-15 -39h25q41 0 59 -10q23 -12 23 -39q0 -18 -8 -39z" />
<glyph unicode="&#xbb;" horiz-adv-x="700" d="M0 156l39 104l291 109l-217 104l30 86l316 -151l-33 -97zM293 156l39 104l291 109l-217 104l30 86l316 -151l-33 -97z" />
<glyph unicode="&#xbf;" horiz-adv-x="598" d="M-61 -193q0 25 14 60l76 219q4 8 7 17.5t5 13.5t2 6q23 53 74 72q31 12 73 12h111l43 127h139l15 39h-25q-55 0 -76 20q-10 10 -10 33q0 27 14 70l23 61h205q49 0 61 -27q4 -6 4 -20q0 -33 -12 -61l-102 -291h-162q-52 0 -80 -19q-35 -18 -53 -63l-19 -49q0 -4 -4 -9v-4 l-11 -28.5t-13.5 -41t-22.5 -44.5q-18 -27 -45 -39q-31 -14 -76 -15h-26l-15 -36h637l-26 -52h-660q-49 0 -61 27q-4 6 -4 22z" />
<glyph unicode="&#xc0;" d="M-72 0l473 801h234q61 0 80 -43q10 -20 10 -58v-700h-205q-41 0 -55 8q-45 18 -45 82v121h-275l-116 -211h-101zM193 289h364l14 37q-63 0 -82 6q-8 2 -20 6q-31 14 -39 39q-8 18 -8 65q0 8 -1 57.5t-1 90.5v78l-4 -4zM284.5 993.5q-18.5 61.5 41.5 77.5q63 18 120.5 -39 t278.5 -147q-137 -35 -279 6q-143 41 -161.5 102.5z" />
<glyph unicode="&#xc1;" d="M-72 0l473 801h234q61 0 80 -41q10 -20 10 -60v-700h-205q-39 0 -55 10q-45 18 -45 82v121h-275l-116 -213h-101zM193 289h364v2l14 37q-70 0 -82 4q-4 2 -11 5t-9 3q-31 14 -39 39q-8 18 -8 63q0 8 -1 59.5t-1 90.5v76l-4 -4zM281 887q218 89 276 147q57 57 123 39 q57 -14 38.5 -77.5t-159.5 -102.5q-141 -41 -278 -6z" />
<glyph unicode="&#xc2;" d="M-72 0l473 801h234q61 0 80 -43q10 -20 10 -58v-700h-205q-41 0 -55 8q-45 18 -45 82v121h-275l-116 -211h-101zM193 289h364l14 37q-63 0 -82 6q-8 2 -20 6q-31 14 -39 39q-8 18 -8 65q0 8 -1 57.5t-1 90.5v78l-4 -4zM211 887q205 76 266 129q45 39 88 39t74 -39 q39 -51 215 -131q-125 -27 -242 6q-46 15 -73 31q-34 -15 -86 -31q-133 -35 -242 -4z" />
<glyph unicode="&#xc3;" d="M-74 0l473 801h232q63 0 82 -43q8 -16 8 -58v-700h-205q-41 0 -55 8q-43 18 -43 82v121h-277l-116 -211h-99zM190 289h365l14 37q-66 0 -84 6q-8 2 -20 6q-29 12 -37 39q-10 25 -10 65v148v78l-4 -4zM231 920q39 68 84 94q47 27 82 26.5t64 -4.5q43 -10 104 -51 q57 -39 92 -51q12 -4 41 -10q49 -10 70 2q25 14 33 24l18 25l53 -10q-20 -45 -63 -84q-39 -35 -86 -39q-49 -4 -76 2q-37 6 -106 47q-78 47 -92 53q-27 14 -48 17q-31 6 -45 0q-18 -8 -30 -17q-14 -10 -33 -35z" />
<glyph unicode="&#xc4;" d="M-74 0l473 801h232q63 0 82 -43q8 -16 8 -58v-700h-205q-41 0 -55 8q-43 18 -43 82v121h-277l-116 -211h-99zM190 289h365l14 37q-66 0 -84 6q-8 2 -20 6q-29 12 -37 39q-10 25 -10 65v148v78l-4 -4zM281 899q0 20 10 41q12 40 37 55l5 3q5 3 9 6q16 4 39 4h106 q29 0 33 -2q8 -4 12 -9q8 -6 8.5 -20t-12.5 -45q-12 -39 -36 -53q-2 -2 -17 -7q-12 -6 -33 -6h-112q-23 0 -35 8q-14 7 -14 25zM578 899q0 16 12 41q12 40 37 55q4 4 14 9q8 4 39 4h106q29 0 33 -2q8 -4 12 -9q8 -6 8.5 -20t-12.5 -45q-12 -39 -36 -53q-4 -4 -17 -9 q-16 -4 -33 -4h-114q-25 0 -33 6q-16 11 -16 27z" />
<glyph unicode="&#xc5;" d="M-72 0l473 801h234q61 0 80 -43q10 -20 10 -58v-700h-205q-41 0 -55 8q-45 18 -45 82v121h-275l-116 -211h-101zM193 289h364l14 37q-63 0 -82 6q-8 2 -20 6q-31 14 -39 39q-8 18 -8 65q0 8 -1 57.5t-1 90.5v78l-4 -4zM438 991q0 55 39 94t94.5 39t94.5 -38.5t39 -94 t-39 -92.5q-43 -39 -94.5 -39t-94.5 39q-39 37 -39 92zM502 991q0 -31 18 -49q20 -20 51 -20t52 20q18 18 18 49q0 33 -18 51q-20 20 -51 20.5t-52 -20.5q-18 -18 -18 -51z" />
<glyph unicode="&#xc6;" horiz-adv-x="1347" d="M-70 0l473 801h232q51 0 74 -29q33 29 82 29h544q68 0 84 -27q8 -10 8 -26v-7q0 -18 -14 -59l-24 -74h-277q23 63 25 76q0 4 1 9l1 5v2q0 35 -39 48q-20 4 -39 4h-217l-13 -39h27q43 0 64 -15q18 -12 18 -38.5t-8 -45.5l-58 -170h367l-16 -47h-502l-14 -39h24 q55 0 76 -20q10 -10 10 -35q0 -23 -16 -72l-68 -182h111q52 0 80 19q35 18 53 63q18 49 22 62h256l-36 -107q-25 -55 -74 -74q-31 -12 -74 -12h-569q-29 4 -39 8q-43 18 -43 82v121h-277l-116 -211h-99zM195 289h364l14 37q-66 0 -84 6q-8 2 -20 6q-29 12 -37 39 q-10 25 -10 65v148v78l-4 -4z" />
<glyph unicode="&#xc7;" horiz-adv-x="909" d="M0 47v4q0 20 18 70l213 598q8 20 23 37q35 45 96 45h545q68 0 84 -27q8 -10 8 -26v-7q0 -18 -14 -59l-25 -74h-276q23 63 24 76q0 4 1 9l1 5v2q0 35 -39 48q-20 4 -38 4h-218l-12 -39h27q43 0 63.5 -14.5t20.5 -39.5q0 -20 -10 -45l-195 -565h109q52 0 79 19q35 18 54 63 q18 49 22 62h256q-33 -98 -37 -107q-25 -55 -73 -74q-31 -12 -74 -12h-570q-43 0 -59 25q-4 8 -4 22zM143 -219h25q41 0 59 10q20 12 21 39q0 23 -6 41q-14 43 -15 51q0 40 49 49q6 2 31 2h215l15 -36h-25q-37 0 -59.5 -12.5t-22.5 -39.5q0 -14 8 -39q12 -37 13 -53 q0 -40 -50 -49h-28h-217z" />
<glyph unicode="&#xc8;" horiz-adv-x="919" d="M0 47v4q0 20 18 70l213 598q8 20 23 37q35 45 96 45h545q68 0 84 -27q8 -10 8 -26v-7q0 -18 -14 -59l-25 -74h-276q23 63 24 76q0 4 1 9l1 5v2q0 35 -39 48q-20 4 -38 4h-218l-12 -39h27q43 0 63.5 -14.5t20.5 -39.5q0 -20 -10 -45l-58 -170h369l-19 -47h-501l-15 -39h25 q55 0 76 -20q10 -10 10 -35q0 -23 -17 -72l-65 -182h109q52 0 79 19q35 18 54 63q18 49 22 62h256q-33 -98 -37 -107q-25 -55 -73 -74q-31 -12 -74 -12h-570q-43 0 -59 25q-4 8 -4 22zM432 981q-18 66 39 80q63 18 123 -41q58 -58 276 -148q-135 -34 -276 7 q-144 41 -162 102z" />
<glyph unicode="&#xc9;" horiz-adv-x="909" d="M0 47v4q0 20 18 70l213 598q8 20 23 37q35 45 96 45h545q68 0 84 -27q8 -10 8 -26v-7q0 -18 -14 -59l-25 -74h-276q23 63 24 76q0 4 1 9l1 5v2q0 35 -39 48q-20 4 -38 4h-218l-12 -39h27q43 0 63.5 -14.5t20.5 -39.5q0 -20 -10 -45l-58 -170h369l-19 -47h-501l-15 -39h25 q55 0 76 -20q10 -10 10 -35q0 -23 -17 -72l-65 -182h109q52 0 79 19q35 18 54 63q18 49 22 62h256q-33 -98 -37 -107q-25 -55 -73 -74q-31 -12 -74 -12h-570q-43 0 -59 25q-4 8 -4 22zM428 872q218 89 277 148t122 41q57 -14 39 -80q-18 -61 -161 -102q-142 -41 -277 -7z " />
<glyph unicode="&#xca;" horiz-adv-x="923" d="M0 47v4q0 20 18 70l213 598q8 20 23 37q35 45 96 45h545q68 0 84 -27q8 -10 8 -26v-7q0 -18 -14 -59l-25 -74h-276q23 63 24 76q0 4 1 9l1 5v2q0 35 -39 48q-20 4 -38 4h-218l-12 -39h27q43 0 63.5 -14.5t20.5 -39.5q0 -20 -10 -45l-58 -170h369l-19 -47h-501l-15 -39h25 q55 0 76 -20q10 -10 10 -35q0 -23 -17 -72l-65 -182h109q52 0 79 19q35 18 54 63q18 49 22 62h256q-33 -98 -37 -107q-25 -55 -73 -74q-31 -12 -74 -12h-570q-43 0 -59 25q-4 8 -4 22zM322 887q205 76 266 129q45 39 88 39t74 -39q39 -51 215 -131q-125 -27 -242 6 q-46 15 -74 31q-34 -15 -86 -31q-132 -35 -241 -4z" />
<glyph unicode="&#xcb;" horiz-adv-x="909" d="M0 47v4q0 20 18 70l213 598q8 20 23 37q35 45 96 45h545q68 0 84 -27q8 -10 8 -26v-7q0 -18 -14 -59l-25 -74h-276q23 63 24 76q0 4 1 9l1 5v2q0 35 -39 48q-20 4 -38 4h-218l-12 -39h27q43 0 63.5 -14.5t20.5 -39.5q0 -20 -10 -45l-58 -170h369l-19 -47h-501l-15 -39h25 q55 0 76 -20q10 -10 10 -35q0 -23 -17 -72l-65 -182h109q52 0 79 19q35 18 54 63q18 49 22 62h256q-33 -98 -37 -107q-25 -55 -73 -74q-31 -12 -74 -12h-570q-43 0 -59 25q-4 8 -4 22zM373 899q0 16 12 41q12 41 35 55l16 9q16 4 37 4h109q29 0 32 -2q8 -4 13 -9q8 -6 8 -20 t-12 -45q-12 -39 -37 -53q-2 -2 -17 -7q-12 -6 -32 -6h-115q-23 0 -35 8q-14 7 -14 25zM672 899q0 20 10 41q12 40 37 55q4 4 16 9q8 4 37 4h109q27 0 30 -2q8 -4 13 -9q8 -6 8 -20t-12 -45q-12 -39 -37 -53q-4 -4 -17 -9q-16 -4 -32 -4h-113q-25 0 -35 6q-14 9 -14 27z" />
<glyph unicode="&#xcc;" horiz-adv-x="499" d="M0 47v4q0 23 14 58l242 692h205q49 0 61 -29q6 -10 6 -20q0 -27 -14 -62l-242 -690h-192q-29 0 -45 4q-35 10 -35 43zM225 993q-18 63 39 78q66 18 123 -39q58 -58 277 -147q-135 -34 -277 6q-144 41 -162 102z" />
<glyph unicode="&#xcd;" horiz-adv-x="499" d="M0 47v4q0 23 14 58l242 692h205q49 0 61 -29q6 -10 6 -20q0 -27 -14 -62l-242 -690h-192q-29 0 -45 4q-35 10 -35 43zM205 885q218 89 276 147q57 57 123 39q57 -14 39 -77.5t-160 -102.5q-141 -41 -278 -6z" />
<glyph unicode="&#xce;" horiz-adv-x="600" d="M0 47v4q0 23 14 58l242 692h205q49 0 61 -29q6 -10 6 -20q0 -27 -14 -62l-242 -690h-192q-29 0 -45 4q-35 10 -35 43zM106 887q205 76 267 129q45 39 88 39t74 -39q39 -51 215 -131q-125 -27 -242 6q-46 15 -74 31q-34 -15 -86 -31q-133 -35 -242 -4z" />
<glyph unicode="&#xcf;" horiz-adv-x="600" d="M0 47v4q0 23 14 58l242 692h205q49 0 61 -29q6 -10 6 -20q0 -27 -14 -62l-242 -690h-192q-29 0 -45 4q-35 10 -35 43zM154 899q0 16 12 41q12 41 35 55l16 9q16 4 39 4h106q29 0 33 -2q8 -4 13 -9q8 -6 8 -20t-13 -45q-12 -39 -36 -53q-2 -2 -17 -7q-12 -6 -33 -6h-114 q-23 0 -35 8q-14 7 -14 25zM453 899q0 20 10 41q12 40 37 55q4 4 16 9q8 4 39 4h107q27 0 30 -2q8 -4 13 -9q8 -6 8 -20t-13 -45q-12 -39 -36 -53q-4 -4 -17 -9q-16 -4 -33 -4h-112q-27 0 -35 6q-14 9 -14 27z" />
<glyph unicode="&#xd0;" horiz-adv-x="899" d="M-6 377l14 47h144l133 377h630q45 0 60 -25q4 -8 4 -20v-4q0 -25 -16 -64l-218 -604q-6 -18 -18 -37q-35 -47 -94 -47h-633l133 377h-139zM303 49h92q82 0 117 64q4 8 29 77l166 461q12 37 12 54q0 37 -49 47q-6 2 -31 2h-215l-12 -37h22q41 0 61.5 -12.5t20.5 -38.5 q0 -20 -6 -39l-74 -203h129l-16 -47h-129z" />
<glyph unicode="&#xd1;" horiz-adv-x="927" d="M0 0l285 801h321q61 0 80 -43q10 -20 10 -58v-477l205 578h96l-280 -801h-225q-41 0 -56 8q-45 18 -45 82v508q0 18 4 43l8 25q12 25 33 32q2 0 9.5 3.5l11.5 5.5q29 4 47 4l12 37h-156l-262 -748h-98zM346 920q39 70 82 96q39 25 82 24q35 0 63 -4q45 -10 107 -51 q57 -39 92 -51q12 -4 41 -10q47 -10 68 2q18 10 32 24q12 12 19 25l53 -10q-23 -49 -63 -84q-41 -37 -86 -39q-47 -4 -74 2q-39 6 -109 47q-80 47 -92 53q-29 14 -45 17q-31 6 -47 0q-14 -6 -29 -17q-18 -14 -34 -35z" />
<glyph unicode="&#xd2;" horiz-adv-x="903" d="M0 45v2q0 18 16 62l213 600q8 23 21 41q23 33 55 45q23 6 43 6h563q45 0 60 -25q4 -8 4 -20v-4q0 -25 -17 -64l-217 -604q-6 -18 -18 -37q-35 -47 -94 -47h-568q-61 0 -61 45zM270 49h92q80 0 115 64q10 23 31 77l164 461q12 37 12 54q0 39 -47 47q-6 2 -31 2h-217 l-12 -37h24q37 0 60 -12q20 -12 20 -39q0 -20 -6 -39zM454.5 993.5q-18.5 61.5 41.5 77.5q63 18 120.5 -39t278.5 -147q-137 -35 -279 6q-143 41 -161.5 102.5z" />
<glyph unicode="&#xd3;" horiz-adv-x="903" d="M0 45v2q0 18 16 62l213 600q8 23 21 41q23 33 55 45q23 6 43 6h563q45 0 60 -25q4 -8 4 -20v-4q0 -25 -17 -64l-217 -604q-6 -18 -18 -37q-35 -47 -94 -47h-568q-61 0 -61 45zM270 49h92q80 0 115 64q10 23 31 77l164 461q12 37 12 54q0 39 -47 47q-6 2 -31 2h-217 l-12 -37h24q37 0 60 -12q20 -12 20 -39q0 -20 -6 -39zM430 885q221 90 278.5 147.5t120.5 38.5q59 -16 41 -77.5t-161 -102.5q-142 -41 -279 -6z" />
<glyph unicode="&#xd4;" horiz-adv-x="913" d="M0 45v2q0 18 16 62l213 600q8 23 21 41q23 33 55 45q23 6 43 6h563q45 0 60 -25q4 -8 4 -20v-4q0 -25 -17 -64l-217 -604q-6 -18 -18 -37q-35 -47 -94 -47h-568q-61 0 -61 45zM270 49h92q80 0 115 64q10 23 31 77l164 461q12 37 12 54q0 39 -47 47q-6 2 -31 2h-217 l-12 -37h24q37 0 60 -12q20 -12 20 -39q0 -20 -6 -39zM350 887q205 76 266 129q45 39 88.5 39t73.5 -39q39 -51 215 -131q-125 -27 -241 6q-41 14 -72 31q-34 -15 -86 -31q-135 -35 -244 -4z" />
<glyph unicode="&#xd5;" horiz-adv-x="903" d="M0 45v2q0 18 16 62l213 600q8 23 21 41q23 33 55 45q23 6 43 6h563q45 0 60 -25q4 -8 4 -20v-4q0 -25 -17 -64l-217 -604q-6 -18 -18 -37q-35 -47 -94 -47h-568q-61 0 -61 45zM270 49h92q80 0 115 64q10 23 31 77l164 461q12 37 12 54q0 39 -47 47q-6 2 -31 2h-217 l-12 -37h24q37 0 60 -12q20 -12 20 -39q0 -20 -6 -39zM360 920q39 70 82 96q41 25 84 24q35 0 64 -4q43 -10 104 -51q57 -39 92 -51q12 -4 41 -10q47 -10 68 2q25 14 35 24.5t16 24.5l55 -10q-23 -49 -63 -84q-41 -37 -86 -39q-49 -4 -76 2q-39 6 -108 47l-90 53 q-27 14 -48 17q-29 6 -45 0q-20 -8 -30 -15q-14 -8 -33 -37z" />
<glyph unicode="&#xd6;" horiz-adv-x="899" d="M0 45v2q0 18 16 62l213 600q8 23 21 41q23 33 55 45q23 6 43 6h563q45 0 60 -25q4 -8 4 -20v-4q0 -25 -17 -64l-217 -604q-6 -18 -18 -37q-35 -47 -94 -47h-568q-61 0 -61 45zM270 49h92q80 0 115 64q10 23 31 77l164 461q12 37 12 54q0 39 -47 47q-6 2 -31 2h-217 l-12 -37h24q37 0 60 -12q20 -12 20 -39q0 -20 -6 -39zM385 899q0 20 10 41q12 40 37 55l17 9q16 4 36 4h109q29 0 33 -2q8 -4 12 -9q6 -4 6 -20q0 -18 -10 -45q-12 -39 -37 -53q-2 -2 -16 -7q-12 -6 -33 -6h-115q-23 0 -35 8q-14 7 -14 25zM682 899q0 16 12 41q12 40 37 55 q4 4 17 9q8 4 36 4h109q27 0 31 -2q8 -4 12 -9q8 -6 8 -20t-12 -45q-12 -39 -37 -53q-4 -4 -16 -9q-16 -4 -33 -4h-115q-23 0 -33 6q-16 11 -16 27z" />
<glyph unicode="&#xd8;" horiz-adv-x="899" d="M0 45v2q0 18 16 62l213 600q8 23 21 41q23 33 55 45q23 6 43 6h377l125 178l51 -41l-94 -137h104q45 0 60 -25q4 -8 4 -20v-4q0 -25 -17 -64l-217 -604q-6 -18 -18 -37q-35 -47 -94 -47h-377l-125 -178l-53 39l96 139h-109q-61 0 -61 45zM287 49h86q80 0 114 64 q4 8 29 77l143 400zM358 270l324 467q-10 10 -37 15q-6 2 -29 2h-217l-12 -37h25q39 0 59.5 -12.5t20.5 -38.5q0 -20 -7 -39z" />
<glyph unicode="&#xd9;" horiz-adv-x="923" d="M0 43v6q0 25 16 64l246 688h264l-233 -651q-12 -37 -12 -54q0 -40 49 -49q6 -2 28 -2h217l13 39h-25q-41 0 -59 10q-20 12 -21 39q0 20 6 39l224 629h288l-256 -709q-10 -29 -20 -43q-22 -31 -55 -43q-23 -6 -43 -6h-564q-47 0 -59 23q-4 8 -4 20zM434.5 993.5 q-18.5 63.5 38.5 77.5q66 18 123 -39q58 -58 276 -147q-137 -35 -278 6q-141 39 -159.5 102.5z" />
<glyph unicode="&#xda;" horiz-adv-x="923" d="M0 43v6q0 25 16 64l246 688h264l-233 -651q-12 -37 -12 -54q0 -40 49 -49q6 -2 28 -2h217l13 39h-25q-41 0 -59 10q-20 12 -21 39q0 20 6 39l224 629h288l-256 -709q-10 -29 -20 -43q-22 -31 -55 -43q-23 -6 -43 -6h-564q-47 0 -59 23q-4 8 -4 20zM426 885 q218 89 276 147q57 57 121 39q59 -16 41 -77.5t-162 -102.5q-141 -40 -276 -6z" />
<glyph unicode="&#xdb;" horiz-adv-x="927" d="M0 43v6q0 25 16 64l246 688h264l-233 -651q-12 -37 -12 -54q0 -40 49 -49q6 -2 28 -2h217l13 39h-25q-41 0 -59 10q-20 12 -21 39q0 20 6 39l224 629h288l-256 -709q-10 -29 -20 -43q-22 -31 -55 -43q-23 -6 -43 -6h-564q-47 0 -59 23q-4 8 -4 20zM340 887 q205 76 266 129q45 39 88 39t74 -39q39 -51 215 -131q-125 -27 -242 6q-46 15 -73 31q-34 -15 -86 -31q-133 -35 -242 -4z" />
<glyph unicode="&#xdc;" horiz-adv-x="927" d="M0 43v6q0 25 16 64l246 688h264l-233 -651q-12 -37 -12 -54q0 -40 49 -49q6 -2 28 -2h217l13 39h-25q-41 0 -59 10q-20 12 -21 39q0 20 6 39l224 629h288l-256 -709q-10 -29 -20 -43q-22 -31 -55 -43q-23 -6 -43 -6h-564q-47 0 -59 23q-4 8 -4 20zM385 899.5 q0 20.5 10 40.5q12 41 35 55l16 9q16 4 39 4h107q29 0 33 -2q8 -4 12 -9q8 -6 8 -20t-12 -45q-12 -39 -37 -53q-2 -2 -16 -7q-12 -6 -33 -6h-115q-23 0 -35 8q-12 5 -12 25.5zM682 899q0 20 10 41q12 40 37 55q4 4 16 9q8 4 39 4h107q29 0 33 -2q8 -4 12 -9q6 -4 6 -20 q0 -18 -10 -45q-12 -39 -37 -53q-4 -4 -16 -9q-16 -4 -33 -4h-115q-27 0 -35 6q-14 9 -14 27z" />
<glyph unicode="&#xdd;" horiz-adv-x="825" d="M-43 0l23 47h174q22 0 43 6q25 6 32 37q10 35 11 76v635h274v-434q0 -12 -1 -27.5t-2 -25t-1 -15.5l-8 -25q-12 -25 -33 -32q-2 0 -9 -3t-11 -6q-29 -4 -48 -4l-14 -36h131l316 608h75l-344 -654q-46 -86 -110 -116q-66 -31 -199 -31h-299zM389 872q218 89 277 148 t122 41q57 -14 39 -80q-18 -61 -161 -102q-142 -41 -277 -7z" />
<glyph unicode="&#xdf;" horiz-adv-x="894" d="M-66 -63l310 864h635q68 0 84 -27q8 -10 8 -26v-7q0 -23 -15 -59l-67 -201q-23 -53 -74 -71q-10 -4 -31 -9q43 -6 56 -24q8 -10 8 -29v-6q0 -23 -84 -256q-25 -55 -74 -74q-31 -12 -74 -12h-276l14 49h35q49 0 80 18.5t49 55.5q66 182 70 207q0 4 1 8l1 4v4q0 35 -39 47 q-20 4 -39 4h-246l-14 -39h24q55 0 76 -20q10 -14 10 -33q0 -23 -16 -72l-108 -296h-304zM375 713h26q43 0 64 -15q18 -12 18 -38.5t-8 -45.5l-57 -168h78q52 0 79 19q31 16 52 63q47 129 53 156q2 6 2 14v2q0 35 -41 48q-20 4 -37 4h-217z" />
<glyph unicode="&#xe0;" horiz-adv-x="808" d="M0 53v2q0 18 12 49l62 177q25 53 67 71q8 6 29 8q25 4 59 5h308l65 190h-70q-33 0 -49 -4q-27 -8 -28 -10q-39 -20 -58 -64q-8 -18 -20 -59h-244l33 96q2 2 5 11.5t7 15.5q20 31 60 49q23 10 77 10h502q41 0 55 -14q12 -12 13 -31v-2q0 -20 -17 -59l-143 -400 q-12 -35 -18 -43q-4 -6 -19 -20q-31 -31 -82 -31h-518q-51 0 -72 16q-16 12 -16 37zM258 96q0 -33 37 -45q15 -6 37 -6h223l12 39h-14q-68 0 -82 20q-8 10 -8 29q0 23 6 39l51 147h-94q-57 0 -94 -36q-14 -14 -21 -31q-4 -8 -20 -53q-25 -61 -29 -78q-4 -21 -4 -25z M358.5 770.5q-18.5 63.5 38.5 77.5q66 18 123 -39q58 -58 277 -147q-137 -35 -279 6q-141 39 -159.5 102.5z" />
<glyph unicode="&#xe1;" d="M0 53v2q0 18 12 49l62 177q25 53 67 71q8 6 29 8q25 4 59 5h308l65 190h-70q-33 0 -49 -4q-27 -8 -28 -10q-39 -20 -58 -64q-8 -18 -20 -59h-244l33 96q2 2 5 11.5t7 15.5q20 31 60 49q23 10 77 10h502q41 0 55 -14q12 -12 13 -31v-2q0 -20 -17 -59l-143 -400 q-12 -35 -18 -43q-4 -6 -19 -20q-31 -31 -82 -31h-518q-51 0 -72 16q-16 12 -16 37zM258 96q0 -33 37 -45q15 -6 37 -6h223l12 39h-14q-68 0 -82 20q-8 10 -8 29q0 23 6 39l51 147h-94q-57 0 -94 -36q-14 -14 -21 -31q-4 -8 -20 -53q-25 -61 -29 -78q-4 -21 -4 -25zM354 662 q218 89 277 147q57 57 123 39q57 -14 39 -78q-18 -61 -162 -102q-142 -40 -277 -6z" />
<glyph unicode="&#xe2;" horiz-adv-x="808" d="M0 53v2q0 18 12 49l62 177q25 53 67 71q8 6 29 8q25 4 59 5h308l65 190h-70q-33 0 -49 -4q-27 -8 -28 -10q-39 -20 -58 -64q-8 -18 -20 -59h-244l33 96q2 2 5 11.5t7 15.5q20 31 60 49q23 10 77 10h502q41 0 55 -14q12 -12 13 -31v-2q0 -20 -17 -59l-143 -400 q-12 -35 -18 -43q-4 -6 -19 -20q-31 -31 -82 -31h-518q-51 0 -72 16q-16 12 -16 37zM250 672q201 74 266 131q43 37 88 37t74 -37q37 -49 217 -131q-127 -29 -244 6q-49 16 -71 29q-20 -10 -86 -29q-140 -35 -244 -6zM258 96q0 -33 37 -45q15 -6 37 -6h223l12 39h-14 q-68 0 -82 20q-8 10 -8 29q0 23 6 39l51 147h-94q-57 0 -94 -36q-14 -14 -21 -31q-4 -8 -20 -53q-25 -61 -29 -78q-4 -21 -4 -25z" />
<glyph unicode="&#xe3;" horiz-adv-x="808" d="M0 53v2q0 18 12 49l62 177q25 53 67 71q8 6 29 8q25 4 59 5h308l65 190h-70q-33 0 -49 -4q-27 -8 -28 -10q-39 -20 -58 -64q-8 -18 -20 -59h-244l33 96q2 2 5 11.5t7 15.5q20 31 60 49q23 10 77 10h502q41 0 55 -14q12 -12 13 -31v-2q0 -20 -17 -59l-143 -400 q-12 -35 -18 -43q-4 -6 -19 -20q-31 -31 -82 -31h-518q-51 0 -72 16q-16 12 -16 37zM258 96q0 -33 37 -45q15 -6 37 -6h223l12 39h-14q-68 0 -82 20q-8 10 -8 29q0 23 6 39l51 147h-94q-57 0 -94 -36q-14 -14 -21 -31q-4 -8 -20 -53q-25 -61 -29 -78q-4 -21 -4 -25zM299 727 q39 70 82 96q41 25 82 25q35 0 63 -4q45 -10 107 -51q57 -39 92 -52q12 -4 41 -10q43 -8 65 4q29 16 35 23q14 14 19 24l53 -10q-20 -45 -64 -84q-39 -35 -86 -39q-49 -4 -75 2q-39 8 -107 49l-92 52q-29 14 -45 16q-31 6 -47 0q-25 -10 -31 -14q-10 -8 -33 -37z" />
<glyph unicode="&#xe4;" horiz-adv-x="808" d="M0 53v2q0 18 12 49l62 177q25 53 67 71q8 6 29 8q25 4 59 5h308l65 190h-70q-33 0 -49 -4q-27 -8 -28 -10q-39 -20 -58 -64q-8 -18 -20 -59h-244l33 96q2 2 5 11.5t7 15.5q20 31 60 49q23 10 77 10h502q41 0 55 -14q12 -12 13 -31v-2q0 -20 -17 -59l-143 -400 q-12 -35 -18 -43q-4 -6 -19 -20q-31 -31 -82 -31h-518q-51 0 -72 16q-16 12 -16 37zM258 96q0 -33 37 -45q15 -6 37 -6h223l12 39h-14q-68 0 -82 20q-8 10 -8 29q0 23 6 39l51 147h-94q-57 0 -94 -36q-14 -14 -21 -31q-4 -8 -20 -53q-25 -61 -29 -78q-4 -21 -4 -25zM295 686 q0 18 10 39q12 43 37 57l16 9q16 4 37 4h109q29 0 33 -2q8 -4 12 -9q6 -4 6 -20q0 -23 -10 -47q-12 -35 -37 -51q-8 -6 -16 -9q-8 -4 -33 -4h-115q-25 0 -35 6q-14 7 -14 27zM594 684q0 20 10 41q12 40 37 55q4 4 16 8q12 6 37 7h109q23 0 31 -4l12 -7q8 -6 8 -22 q0 -14 -12 -45q-12 -35 -37 -51q-4 -4 -17 -9q-16 -4 -32 -4h-115q-23 0 -33 6q-14 9 -14 25z" />
<glyph unicode="&#xe5;" horiz-adv-x="802" d="M0 53v2q0 18 12 49l62 177q25 53 67 71q8 6 29 8q25 4 59 5h308l65 190h-70q-33 0 -49 -4q-27 -8 -28 -10q-39 -20 -58 -64q-8 -18 -20 -59h-244l33 96q2 2 5 11.5t7 15.5q20 31 60 49q23 10 77 10h502q41 0 55 -14q12 -12 13 -31v-2q0 -20 -17 -59l-143 -400 q-12 -35 -18 -43q-4 -6 -19 -20q-31 -31 -82 -31h-518q-51 0 -72 16q-16 12 -16 37zM258 96q0 -33 37 -45q15 -6 37 -6h223l12 39h-14q-68 0 -82 20q-8 10 -8 29q0 23 6 39l51 147h-94q-57 0 -94 -36q-14 -14 -21 -31q-4 -8 -20 -53q-25 -61 -29 -78q-4 -21 -4 -25zM434 799 q0 55 39 94t94.5 39t94 -39t38.5 -94.5t-38 -91.5q-43 -39 -95 -39q-55 0 -94 37t-39 94zM498 799q0 -33 18 -51q20 -20 51 -20.5t51.5 20t20.5 51t-21 51.5q-18 18 -51 18q-29 0 -49 -20t-20 -49z" />
<glyph unicode="&#xe6;" horiz-adv-x="1241" d="M0 53v2q0 18 12 49l62 177q25 53 67 71q8 6 29 8q25 4 59 5h308l65 190h-70q-33 0 -49 -4q-27 -8 -28 -10q-39 -20 -58 -64q-8 -18 -20 -59h-244l33 96q2 2 5 11.5t7 15.5q20 31 60 49q23 10 77 10h912q53 0 73 -16q16 -12 17 -37v-2q0 -18 -12 -49l-64 -177 q-20 -51 -67 -71q-23 -8 -27 -8q-25 -4 -62 -4h-307l-63 -191h67q33 0 49 4q27 8 29 10q43 23 58 64q14 35 22 59h244l-33 -96l-14 -29q-18 -29 -58 -47q-23 -10 -78 -10h-913q-51 0 -72 16q-16 12 -16 37zM258 96q0 -33 37 -45q15 -6 37 -6h223l12 39h-14q-68 0 -82 20 q-8 10 -8 29q0 23 6 39l51 147h-94q-57 0 -94 -36q-14 -14 -21 -31q-4 -8 -20 -53q-25 -61 -29 -78q-4 -21 -4 -25zM748 516h16q66 0 80 -20q8 -10 8 -29q0 -25 -6 -39l-51 -147h96q55 0 92 36q16 16 23 31q4 6 10 25.5t8 27.5q25 61 29 78q4 20 4 25q0 33 -35 45 q-15 6 -37 6h-223z" />
<glyph unicode="&#xe7;" horiz-adv-x="808" d="M0 43v6q0 23 16 62l148 405q12 29 20 39q33 45 97 45h518q59 0 78 -20q10 -10 10 -33t-13 -60l-24 -69h-262q20 59 20 65q2 8 2 21v2q0 37 -39 45q-16 4 -34 4h-205l-15 -39h25q37 0 55 -8q27 -12 27 -39q0 -31 -14 -66l-127 -358h73q82 0 117 68q12 23 29 69h262 l-39 -102q-25 -51 -72 -70q-23 -10 -71 -10h-521q-45 0 -57 25q-4 12 -4 18zM147 -219h23q43 0 61 10q20 12 21 39q0 23 -6 41q-14 43 -15 51q0 40 50 49q6 2 30 2h215l15 -36h-25q-37 0 -59.5 -12.5t-22.5 -39.5q0 -14 8 -39q12 -37 13 -53q0 -40 -49 -49h-29h-217z" />
<glyph unicode="&#xe8;" d="M0 45v2q0 25 14 59l144 400q10 29 20 43q4 6 19 20q31 31 79 31h519q53 0 73 -16q16 -12 17 -37v-2q0 -18 -13 -49l-63 -177q-20 -51 -68 -71q-23 -8 -26 -8q-25 -4 -62 -4h-307l-63 -191h67q33 0 49 4q27 8 29 10q43 23 57 64l23 59h244l-33 -96l-14 -29 q-18 -29 -58 -47q-23 -10 -78 -10h-503q-39 0 -54 14q-12 13 -12 31zM315 516h17q66 0 80 -20q8 -10 8 -29q0 -25 -6 -39l-52 -147h97q57 0 94 36q14 14 20 31q4 8 21 53q16 43 27 78q4 20 4 25q0 33 -35 45q-15 6 -37 6h-223zM352.5 770.5q-18.5 63.5 36.5 77.5 q66 18 123 -39t279 -147q-137 -35 -279 6q-141 39 -159.5 102.5z" />
<glyph unicode="&#xe9;" d="M0 45v2q0 25 14 59l144 400q10 29 20 43q4 6 19 20q31 31 79 31h519q53 0 73 -16q16 -12 17 -37v-2q0 -18 -13 -49l-63 -177q-20 -51 -68 -71q-23 -8 -26 -8q-25 -4 -62 -4h-307l-63 -191h67q33 0 49 4q27 8 29 10q43 23 57 64l23 59h244l-33 -96l-14 -29 q-18 -29 -58 -47q-23 -10 -78 -10h-503q-39 0 -54 14q-12 13 -12 31zM315 516h17q66 0 80 -20q8 -10 8 -29q0 -25 -6 -39l-52 -147h97q57 0 94 36q14 14 20 31q4 8 21 53q16 43 27 78q4 20 4 25q0 33 -35 45q-15 6 -37 6h-223zM344 662q218 89 277 147q57 57 122 39 q57 -14 39 -78q-18 -61 -161 -102q-142 -40 -277 -6z" />
<glyph unicode="&#xea;" horiz-adv-x="802" d="M0 45v2q0 25 14 59l144 400q10 29 20 43q4 6 19 20q31 31 79 31h519q53 0 73 -16q16 -12 17 -37v-2q0 -18 -13 -49l-63 -177q-20 -51 -68 -71q-23 -8 -26 -8q-25 -4 -62 -4h-307l-63 -191h67q33 0 49 4q27 8 29 10q43 23 57 64l23 59h244l-33 -96l-14 -29 q-18 -29 -58 -47q-23 -10 -78 -10h-503q-39 0 -54 14q-12 13 -12 31zM244 672q201 74 266 131q43 37 88 37t74 -37q39 -51 215 -131q-125 -27 -242 6q-55 18 -74 29q-20 -10 -86 -29q-137 -35 -241 -6zM315 516h17q66 0 80 -20q8 -10 8 -29q0 -25 -6 -39l-52 -147h97 q57 0 94 36q14 14 20 31q4 8 21 53q16 43 27 78q4 20 4 25q0 33 -35 45q-15 6 -37 6h-223z" />
<glyph unicode="&#xeb;" horiz-adv-x="802" d="M0 45v2q0 25 14 59l144 400q10 29 20 43q4 6 19 20q31 31 79 31h519q53 0 73 -16q16 -12 17 -37v-2q0 -18 -13 -49l-63 -177q-20 -51 -68 -71q-23 -8 -26 -8q-25 -4 -62 -4h-307l-63 -191h67q33 0 49 4q27 8 29 10q43 23 57 64l23 59h244l-33 -96l-14 -29 q-18 -29 -58 -47q-23 -10 -78 -10h-503q-39 0 -54 14q-12 13 -12 31zM289 686q0 18 10 39q12 43 37 57l16 9q16 4 37 4h109q29 0 32 -2q8 -4 13 -9q8 -6 8 -20q0 -16 -12 -47q-12 -35 -37 -51q-8 -6 -17 -9q-8 -4 -32 -4h-115q-27 0 -35 6q-14 7 -14 27zM315 516h17 q66 0 80 -20q8 -10 8 -29q0 -25 -6 -39l-52 -147h97q57 0 94 36q14 14 20 31q4 8 21 53q16 43 27 78q4 20 4 25q0 33 -35 45q-15 6 -37 6h-223zM588 684q0 20 10 41q12 40 37 55q4 4 16 8q12 6 37 7h109q23 0 30 -4l13 -7q8 -6 8 -22q0 -14 -12 -45q-12 -35 -37 -51 q-4 -4 -17 -9q-16 -4 -32 -4h-113q-27 0 -35 6q-14 9 -14 25z" />
<glyph unicode="&#xec;" horiz-adv-x="378" d="M0 47v4q0 23 14 58l174 495h185q49 0 61 -26q6 -8 6 -23q0 -25 -14 -59l-174 -496h-172q-29 0 -45 4q-35 10 -35 43zM161.5 770.5q-18.5 63.5 39.5 77.5q66 18 123 -39q58 -58 276 -147q-137 -35 -278 6q-142 39 -160.5 102.5z" />
<glyph unicode="&#xed;" horiz-adv-x="399" d="M0 47v4q0 23 14 58l174 495h185q49 0 61 -26q6 -8 6 -23q0 -25 -14 -59l-174 -496h-172q-29 0 -45 4q-35 10 -35 43zM131 662q218 89 277 147q57 57 122 39q57 -14 39 -78q-18 -61 -161 -102q-142 -40 -277 -6z" />
<glyph unicode="&#xee;" horiz-adv-x="499" d="M0 47v4q0 23 14 58l174 495h185q49 0 61 -26q6 -8 6 -23q0 -25 -14 -59l-174 -496h-172q-29 0 -45 4q-35 10 -35 43zM27 672q174 63 268 131q43 37 88 37q43 0 72 -37q37 -49 217 -131q-127 -29 -244 6q-51 16 -72 29q-20 -10 -86 -29q-139 -35 -243 -6z" />
<glyph unicode="&#xef;" horiz-adv-x="499" d="M0 47v4q0 23 14 58l174 495h185q49 0 61 -26q6 -8 6 -23q0 -25 -14 -59l-174 -496h-172q-29 0 -45 4q-35 10 -35 43zM80 686q0 18 10 39q12 43 37 57l5 3q5 3 9 6q16 4 39 4h107q29 0 32 -2q8 -4 13 -9q8 -6 8 -20q0 -16 -12 -47q-12 -35 -37 -51q-8 -6 -17 -9 q-8 -4 -32 -4h-115q-25 0 -35 6q-12 4 -12 27zM377 684q0 20 10 41q12 39 39 55q4 6 14 8q12 6 39 7h107q25 0 32 -4l13 -7q8 -6 8 -22q0 -14 -12 -45q-12 -35 -37 -51q-4 -4 -17 -9q-16 -4 -32 -4h-115q-25 0 -35 6q-14 9 -14 25z" />
<glyph unicode="&#xf1;" horiz-adv-x="870" d="M0 0l184 518q4 12 17 33q34 49 98 49h569q45 0 58 -22q6 -9 6 -25q0 -10 -8 -39l-185 -514h-268q168 465 170 471q6 20 6 33v2q0 33 -39 45q-16 4 -28 4h-230l-12 -39h24q37 0 56 -8q25 -12 24 -41v-2q0 -20 -12 -51l-145 -414h-285zM299 727q39 70 82 96q41 25 82 25 q35 0 63 -4q45 -10 107 -51q57 -39 92 -52q12 -4 41 -10q43 -8 65 4q29 16 35 23q14 14 19 24l53 -10q-20 -45 -64 -84q-39 -35 -86 -39q-49 -4 -75 2q-39 8 -107 49l-92 52q-29 14 -45 16q-31 6 -47 0q-25 -10 -31 -14q-10 -8 -33 -37z" />
<glyph unicode="&#xf2;" horiz-adv-x="813" d="M0 45v2q0 18 16 62l142 399q10 29 20 43q22 31 55 43q20 6 46 6h542q45 0 58 -25q6 -10 6 -20v-4q0 -20 -19 -64l-143 -403q-6 -18 -18 -37q-35 -47 -97 -47h-547q-61 0 -61 45zM281 49h92q80 0 114 64q6 12 29 75l94 263q14 43 15 53q0 40 -50 49q-6 2 -30 2h-215 l-15 -39h25q41 0 59 -10q23 -12 23 -39q0 -18 -8 -39zM358.5 770.5q-18.5 63.5 36.5 77.5q66 18 123 -39t279 -147q-137 -35 -279 6q-141 39 -159.5 102.5z" />
<glyph unicode="&#xf3;" horiz-adv-x="813" d="M0 45v2q0 18 16 62l142 399q10 29 20 43q22 31 55 43q20 6 46 6h542q45 0 58 -25q6 -10 6 -20v-4q0 -20 -19 -64l-143 -403q-6 -18 -18 -37q-35 -47 -97 -47h-547q-61 0 -61 45zM281 49h92q80 0 114 64q6 12 29 75l94 263q14 43 15 53q0 40 -50 49q-6 2 -30 2h-215 l-15 -39h25q41 0 59 -10q23 -12 23 -39q0 -18 -8 -39zM352 662q221 90 278.5 147t121.5 39q57 -14 38.5 -77.5t-159.5 -102.5q-142 -41 -279 -6z" />
<glyph unicode="&#xf4;" horiz-adv-x="817" d="M0 45v2q0 18 16 62l142 399q10 29 20 43q22 31 55 43q20 6 46 6h542q45 0 58 -25q6 -10 6 -20v-4q0 -20 -19 -64l-143 -403q-6 -18 -18 -37q-35 -47 -97 -47h-547q-61 0 -61 45zM250 672q201 74 266 131q43 37 88 37t74 -37q39 -51 215 -131q-125 -27 -242 6 q-55 18 -73 29q-20 -10 -86 -29q-138 -35 -242 -6zM281 49h92q80 0 114 64q6 12 29 75l94 263q14 43 15 53q0 40 -50 49q-6 2 -30 2h-215l-15 -39h25q41 0 59 -10q23 -12 23 -39q0 -18 -8 -39z" />
<glyph unicode="&#xf5;" horiz-adv-x="813" d="M0 45v2q0 18 16 62l142 399q10 29 20 43q22 31 55 43q20 6 46 6h542q45 0 58 -25q6 -10 6 -20v-4q0 -20 -19 -64l-143 -403q-6 -18 -18 -37q-35 -47 -97 -47h-547q-61 0 -61 45zM262 727q41 74 82 96q43 25 82 25q37 0 66 -4q31 -4 104 -51q63 -41 92 -52q23 -8 41 -12 q43 -8 68 6q29 16 34 23q9 9 19 24l53 -10q-20 -47 -63 -84q-41 -35 -88 -39q-49 -4 -74 2q-47 10 -109 47l-90 54q-27 14 -47 16q-31 6 -47 0q-4 -2 -29 -16q-14 -8 -34 -35zM281 49h92q80 0 114 64q6 12 29 75l94 263q14 43 15 53q0 40 -50 49q-6 2 -30 2h-215l-15 -39h25 q41 0 59 -10q23 -12 23 -39q0 -18 -8 -39z" />
<glyph unicode="&#xf6;" horiz-adv-x="813" d="M0 45v2q0 18 16 62l142 399q10 29 20 43q22 31 55 43q20 6 46 6h542q45 0 58 -25q6 -10 6 -20v-4q0 -20 -19 -64l-143 -403q-6 -18 -18 -37q-35 -47 -97 -47h-547q-61 0 -61 45zM281 49h92q80 0 114 64q6 12 29 75l94 263q14 43 15 53q0 40 -50 49q-6 2 -30 2h-215 l-15 -39h25q41 0 59 -10q23 -12 23 -39q0 -18 -8 -39zM295 686q0 18 10 39q12 43 37 57q2 0 6 3l8 6q16 4 39 4h107q29 0 33 -2q8 -4 12 -9q8 -6 8 -20q0 -16 -12 -47q-12 -35 -37 -51q-8 -6 -17 -9q-8 -4 -32 -4h-115q-27 0 -35 6q-12 4 -12 27zM592 684q0 20 10 41 q12 40 37 55q4 4 16 8q12 6 39 7h107q25 0 33 -4l12 -7q8 -6 8 -22q0 -14 -12 -45q-12 -35 -37 -51q-4 -4 -17 -9q-16 -4 -32 -4h-115q-27 0 -35 6q-14 9 -14 25z" />
<glyph unicode="&#xf7;" horiz-adv-x="497" d="M-49 276l16 48h654l-17 -48h-653zM0 47q0 22 18 68q18 57 56 78q18 8 22 10q15 6 49 6h170q41 0 52 -8q20 -12 20 -39q0 -18 -16 -62q-20 -61 -54 -82q-9 -6 -24 -12q-18 -6 -55 -6h-160q-35 0 -47 4q-6 2 -19 10q-12 13 -12 33zM162 438q0 27 16 68q18 57 55 78 q16 8 25 10q15 6 49 6h168q41 0 51 -8q23 -12 23 -39q0 -18 -17 -61q-18 -61 -55 -82q-12 -8 -22 -13q-18 -6 -58 -6h-157q-37 0 -50 4q-6 2 -18 11q-10 9 -10 32z" />
<glyph unicode="&#xf8;" horiz-adv-x="817" d="M0 45v2q0 18 16 62l142 399q10 29 20 43q22 31 55 43q20 6 46 6h331l107 154l53 -39l-80 -115h131q45 0 58 -25q6 -10 6 -20v-4q0 -20 -19 -64l-143 -403q-6 -18 -18 -37q-35 -47 -97 -47h-332l-106 -154l-55 39l80 115h-134q-61 0 -61 45zM309 49h64q80 0 114 64 q6 12 29 75l94 263q14 39 15 53zM315 516h25q41 0 59 -10q23 -12 23 -39q0 -18 -8 -39l-80 -227l244 352h-3q-6 2 -30 2h-215z" />
<glyph unicode="&#xf9;" horiz-adv-x="870" d="M0 47.5q0 18.5 6 38.5l184 514h269q-160 -442 -168 -473q-6 -22 -6 -31v-2q0 -33 37 -45q16 -4 28 -4h230l14 39h-27q-37 0 -55 8q-25 12 -25 41v2q0 20 13 51l145 414h287l-215 -600h-654q-47 0 -59 23q-4 6 -4 24.5zM360.5 770.5q-18.5 63.5 36.5 77.5q66 18 123.5 -39 t278.5 -147q-137 -35 -279 6q-141 39 -159.5 102.5z" />
<glyph unicode="&#xfa;" horiz-adv-x="876" d="M0 47.5q0 18.5 6 38.5l184 514h269q-160 -442 -168 -473q-6 -22 -6 -31v-2q0 -33 37 -45q16 -4 28 -4h230l14 39h-27q-37 0 -55 8q-25 12 -25 41v2q0 20 13 51l145 414h287l-215 -600h-654q-47 0 -59 23q-4 6 -4 24.5zM354 662q221 90 278.5 147t121.5 39 q57 -14 38.5 -77.5t-159.5 -102.5q-142 -41 -279 -6z" />
<glyph unicode="&#xfb;" horiz-adv-x="876" d="M0 47.5q0 18.5 6 38.5l184 514h269q-160 -442 -168 -473q-6 -22 -6 -31v-2q0 -33 37 -45q16 -4 28 -4h230l14 39h-27q-37 0 -55 8q-25 12 -25 41v2q0 20 13 51l145 414h287l-215 -600h-654q-47 0 -59 23q-4 6 -4 24.5zM250 672q201 74 266 131q43 37 88 37t74 -37 q37 -49 217 -131q-127 -29 -244 6q-49 16 -71 29q-20 -10 -86 -29q-140 -35 -244 -6z" />
<glyph unicode="&#xfc;" horiz-adv-x="870" d="M0 47.5q0 18.5 6 38.5l184 514h269q-160 -442 -168 -473q-6 -22 -6 -31v-2q0 -33 37 -45q16 -4 28 -4h230l14 39h-27q-37 0 -55 8q-25 12 -25 41v2q0 20 13 51l145 414h287l-215 -600h-654q-47 0 -59 23q-4 6 -4 24.5zM297 686q0 18 10 39q14 45 35 57l16 9q16 4 39 4 h107q29 0 33 -2q8 -4 12 -9q8 -6 8 -20q0 -16 -12 -47q-12 -35 -37 -51q-8 -6 -16 -9q-8 -4 -33 -4h-115q-25 0 -35 6q-12 4 -12 27zM594 684q0 20 10 41q12 40 37 55q4 4 16 8q12 6 39 7h107q25 0 33 -4l12 -7q6 -4 6 -22q0 -20 -10 -45q-12 -35 -37 -51q-4 -4 -16 -9 q-16 -4 -33 -4h-115q-25 0 -35 6q-14 9 -14 25z" />
<glyph unicode="&#xfd;" horiz-adv-x="655" d="M-207 -145l21 47h176q22 0 43 6t30 37q10 35 11 75v580h276v-379q-4 -53 -6 -69q-2 -10 -6 -23q-12 -25 -35 -35l-18 -6q-29 -4 -49 -4l-13 -37h129l318 553h75l-344 -600h-2q-45 -84 -108 -115q-66 -31 -201 -30h-297zM246 662q218 89 276 147q57 57 123 39 q57 -14 39 -77.5t-160 -102.5q-141 -41 -278 -6z" />
<glyph unicode="&#xff;" horiz-adv-x="655" d="M-209 -145l23 47h174q22 0 43 6q25 6 32 37q10 35 11 75v580h274v-379q-4 -53 -6 -69q-2 -10 -6 -23q-12 -27 -33 -35q-12 -4 -20 -6q-29 -4 -47 -4l-15 -37h131l316 553h75l-344 -600q-45 -84 -110 -115q-63 -31 -201 -30h-297zM164 686.5q0 20.5 10 40.5q12 40 37 55 q2 0 6 3l8 6q16 4 39 4h107q29 0 32 -2q8 -4 13 -9q8 -6 8 -20t-12 -45q-12 -39 -37 -53q-2 -2 -17 -7q-12 -6 -32 -6h-113q-25 0 -37 9q-12 4 -12 24.5zM461 686q0 20 10 41q12 39 39 55q6 4 14 8.5t39 4.5h107q29 0 32 -2q8 -4 13 -9q8 -6 8 -20t-12 -45q-12 -39 -37 -53 q-4 -4 -17 -9q-16 -4 -32 -4h-115q-27 0 -35 6q-14 9 -14 27z" />
<glyph unicode="&#x152;" horiz-adv-x="1400" d="M0 45v2q0 18 16 62l213 600q8 23 21 41q23 33 55 45q23 6 43 6h1028q68 0 84 -27q10 -14 10 -26v-7q0 -14 -16 -59l-22 -74h-279q6 16 12 35t10.5 28t4.5 13v14v2q0 35 -39 48q-20 4 -39 4h-215l-15 -39h27q45 0 66 -15q18 -12 18 -38.5t-8 -45.5l-60 -170h369l-16 -47 h-502l-14 -39h22q55 0 76 -20q10 -10 10 -35q0 -29 -14 -72l-68 -182h111q52 0 80 19q31 16 51 63q18 49 22 62h256l-36 -107q-25 -55 -72 -74q-31 -12 -76 -12h-1053q-61 0 -61 45zM281 49h92q80 0 114 64q4 8 29 77l166 461q12 37 12 54q0 37 -49 47q-6 2 -29 2h-217 l-12 -37h25q39 0 59.5 -12.5t20.5 -38.5q0 -20 -7 -39z" />
<glyph unicode="&#x153;" horiz-adv-x="1294" d="M0 45v2q0 18 16 62l142 401q8 23 20 41q22 31 55 43q20 6 46 6h991q51 0 71 -16q16 -12 17 -37v-2q0 -18 -12 -49l-64 -177q-23 -53 -65 -71q-20 -6 -29 -8q-25 -4 -60 -4h-307l-65 -191h69q33 0 49 4q27 8 29 10q41 23 55 64l23 59h244l-33 -96l-14 -29q-18 -29 -58 -47 q-23 -10 -78 -10h-981q-61 0 -61 45zM281 51h92q82 0 114 62q4 8 29 77l94 263q14 43 15 53q0 39 -50 47q-6 2 -30 2h-215l-15 -37h25q37 0 59.5 -12t22.5 -39q0 -18 -8 -39zM791 516h16q66 0 80 -20q8 -10 8 -29q0 -25 -6 -39l-51 -147h96q55 0 92 36q14 14 21 31 q4 8 20 53q16 43 27 78q4 20 4 25q0 33 -35 45q-15 6 -37 6h-223z" />
<glyph unicode="&#x178;" horiz-adv-x="851" d="M-43 0l20 47h177q22 0 43 6t30 37q10 35 11 76v635h276v-434q-3 -49 -6 -68q-3 -15 -6 -25q-12 -25 -33 -32q-2 0 -9 -3t-11 -6q-29 -4 -50 -4l-12 -36h129l318 608h75l-344 -654h-2q-47 -88 -108 -116q-66 -31 -201 -31h-297zM322 899q0 20 10 41q12 40 37 55l16 9 q16 4 37 4h106q29 0 33 -2q8 -4 12 -9q8 -6 8.5 -20t-12.5 -45q-12 -39 -37 -53q-2 -2 -16 -7q-12 -6 -33 -6h-112q-23 0 -35 8q-14 7 -14 25zM618 899q0 16 13 41q12 40 37 55q4 4 14 9q8 4 39 4h106q29 0 33 -2q8 -4 12 -9q8 -6 8.5 -20t-12.5 -45q-12 -39 -37 -53 q-4 -4 -16 -9q-16 -4 -33 -4h-114q-25 0 -33 6q-17 11 -17 27z" />
<glyph unicode="&#x2c6;" horiz-adv-x="598" d="M0 672q201 74 266 131q43 37 88 37t74 -37q39 -51 215 -131q-125 -27 -242 6q-49 16 -71 29q-20 -10 -86 -29q-140 -35 -244 -6z" />
<glyph unicode="&#x2dc;" horiz-adv-x="600" d="M0 727q39 70 82 96q41 25 82 25q35 0 63 -4q45 -10 107 -51q57 -39 92 -52q12 -4 41 -10q45 -8 68 4q25 14 32 23q12 12 19 24l53 -10q-23 -49 -64 -84q-41 -37 -86 -39q-47 -4 -73 2q-35 6 -109 49l-92 52q-29 14 -45 16q-31 6 -47 0q-20 -8 -31 -14q-14 -8 -33 -37z " />
<glyph unicode="&#x2000;" horiz-adv-x="561" />
<glyph unicode="&#x2001;" horiz-adv-x="1124" />
<glyph unicode="&#x2002;" horiz-adv-x="561" />
<glyph unicode="&#x2003;" horiz-adv-x="1124" />
<glyph unicode="&#x2004;" horiz-adv-x="374" />
<glyph unicode="&#x2005;" horiz-adv-x="280" />
<glyph unicode="&#x2006;" horiz-adv-x="186" />
<glyph unicode="&#x2007;" horiz-adv-x="186" />
<glyph unicode="&#x2008;" horiz-adv-x="139" />
<glyph unicode="&#x2009;" horiz-adv-x="223" />
<glyph unicode="&#x200a;" horiz-adv-x="61" />
<glyph unicode="&#x2010;" horiz-adv-x="421" d="M49 270l19 54h372l-16 -54h-375z" />
<glyph unicode="&#x2011;" horiz-adv-x="421" d="M49 270l19 54h372l-16 -54h-375z" />
<glyph unicode="&#x2012;" horiz-adv-x="421" d="M49 270l19 54h372l-16 -54h-375z" />
<glyph unicode="&#x2013;" horiz-adv-x="724" d="M41 276l16 48h723l-16 -48h-723z" />
<glyph unicode="&#x2014;" horiz-adv-x="1001" d="M41 276l16 48h983l-16 -48h-983z" />
<glyph unicode="&#x2018;" horiz-adv-x="331" d="M0 565q0 16 16 60q12 43 37 67q2 4 8 10q41 41 136 72q141 45 280 8q-143 -14 -225 -57h57q41 0 47 -2l19 -12q12 -12 12 -31q0 -25 -18 -70q-18 -53 -56 -75q-2 -2 -10 -6.5t-12 -6.5q-15 -6 -49 -6h-170q-37 0 -52 10q-20 12 -20 39z" />
<glyph unicode="&#x2019;" horiz-adv-x="403" d="M0 535q143 14 225 57h-57q-35 0 -47 4q-6 2 -19 10q-12 12 -12 33q0 22 19 68q18 53 55 75q2 2 10 6.5t12 6.5q15 6 50 6h170q37 0 51 -10q20 -12 20 -39q0 -16 -16 -60q-12 -43 -37 -67q-2 -4 -8 -11q-41 -41 -135 -71q-142 -45 -281 -8z" />
<glyph unicode="&#x201a;" horiz-adv-x="415" d="M0 -57q150 18 225 57h-57q-35 0 -47 4q-6 2 -19 10q-12 12 -12 33q0 22 19 68q18 57 55 78q18 8 22 10q15 6 50 6h170q41 0 51 -8q20 -12 20 -39q0 -18 -16 -62q-12 -43 -37 -67l-8 -8q-45 -45 -135 -74q-142 -45 -281 -8z" />
<glyph unicode="&#x201c;" horiz-adv-x="702" d="M0 565q0 16 16 60q12 43 37 67q2 4 8 10q41 41 136 72q141 45 280 8q-143 -14 -225 -57h57q41 0 47 -2l19 -12q12 -12 12 -31q0 -25 -18 -70q-18 -53 -56 -75q-2 -2 -10 -6.5t-12 -6.5q-15 -6 -49 -6h-170q-37 0 -52 10q-20 12 -20 39zM383 565q0 23 14 60q12 43 37 67 q2 4 8 10q41 41 138 72q141 45 278 8q-143 -14 -225 -57h57q43 0 49 -2l19 -12q10 -10 10 -31q0 -29 -16 -70q-18 -53 -56 -75l-24 -13q-15 -6 -49 -6h-168q-37 0 -52 10q-20 12 -20 39z" />
<glyph unicode="&#x201d;" d="M0 535q143 14 225 57h-57q-35 0 -47 4q-6 2 -19 10q-12 12 -12 33q0 22 19 68q18 53 55 75q2 2 10 6.5t12 6.5q15 6 50 6h170q37 0 51 -10q20 -12 20 -39q0 -16 -16 -60q-12 -43 -37 -67q-2 -4 -8 -11q-41 -41 -135 -71q-142 -45 -281 -8zM383 535q143 14 225 57h-57 q-37 0 -49 4q-6 2 -19 10q-12 12 -12 33q0 22 18 68q18 53 56 75l24 13q15 6 49 6h168q37 0 52 -10q20 -12 20 -39q0 -23 -14 -60q-12 -43 -37 -67q-2 -4 -8 -11q-41 -41 -137 -71q-142 -45 -279 -8z" />
<glyph unicode="&#x201e;" horiz-adv-x="800" d="M0 -55q147 14 225 55h-57q-35 0 -47 4q-6 2 -19 10q-12 12 -12 33q0 22 19 68q18 57 55 78q18 8 22 10q15 6 50 6h170q41 0 51 -8q20 -12 20 -39q0 -18 -16 -62q-12 -43 -37 -67l-8 -8q-41 -41 -135 -72q-142 -45 -281 -8zM383 -55q147 14 225 55h-57q-37 0 -49 4 q-6 2 -19 10q-12 12 -12 33q0 22 18 68q18 57 56 78q16 8 24 10q15 6 49 6h168q41 0 52 -8q20 -12 20 -39q0 -25 -14 -62q-12 -43 -37 -67l-8 -8q-41 -41 -137 -72q-142 -45 -279 -8z" />
<glyph unicode="&#x2022;" horiz-adv-x="331" d="M0 322q0 22 18 67q18 57 56 78q18 8 22 10q15 6 49 6h170q41 0 52 -8q20 -12 20 -39q0 -16 -16 -59q-20 -61 -54 -82q-9 -6 -24 -12q-25 -8 -55 -9h-160q-35 0 -47 5l-19 12q-12 13 -12 31z" />
<glyph unicode="&#x2026;" horiz-adv-x="1198" d="M0 47q0 22 18 68q18 57 56 78q18 8 22 10q15 6 49 6h170q41 0 52 -8q20 -12 20 -39q0 -18 -16 -62q-20 -61 -54 -82q-9 -6 -24 -12q-18 -6 -55 -6h-160q-35 0 -47 4q-6 2 -19 10q-12 13 -12 33zM438 47q0 22 19 68q18 57 55 78q18 8 23 10q15 6 49 6h170q41 0 51 -8 q20 -12 20 -39q0 -18 -16 -62q-20 -61 -53 -82q-9 -6 -25 -12q-18 -6 -55 -6h-160q-35 0 -47 4q-6 2 -18 10q-13 13 -13 33zM874 47q0 22 19 68q18 57 55 78q16 8 25 10q15 6 49 6h168q41 0 51 -8q20 -12 21 -39q0 -18 -17 -62q-20 -61 -53 -82q-9 -6 -25 -12q-18 -6 -55 -6 h-160q-35 0 -47 4q-6 2 -18 10q-13 13 -13 33z" />
<glyph unicode="&#x202f;" horiz-adv-x="223" />
<glyph unicode="&#x2039;" horiz-adv-x="399" d="M0 307l33 96l426 156l-39 -104l-291 -107l215 -104l-31 -88z" />
<glyph unicode="&#x203a;" horiz-adv-x="428" d="M0 156l39 104l291 109l-217 104l30 86l316 -151l-33 -97z" />
<glyph unicode="&#x205f;" horiz-adv-x="280" />
<glyph unicode="&#x20ac;" horiz-adv-x="923" d="M0 322l16 47h768l-16 -47h-502l-14 -39h24q51 0 74 -23q12 -12 12 -33q0 -23 -16 -71l-39 -107h111q52 0 80 19q31 16 51 63q18 49 22 62h256l-36 -107q-25 -55 -72 -74q-31 -12 -76 -12h-567q-43 0 -60 25q-6 12 -6 22v4q0 14 21 70l69 201h-100zM35 426q4 12 7 23.5 t7 23.5h107l86 246q8 20 22 37q35 45 96 45h545q68 0 84 -27q10 -14 10 -26v-7q0 -14 -16 -59l-22 -74h-279q6 16 12 35t10.5 28t4.5 13v14v2q0 35 -39 48q-20 4 -39 4h-215l-15 -39h27q45 0 66 -15q18 -12 18 -38.5t-8 -45.5l-51 -141h364l-16 -47h-766z" />
<glyph unicode="&#x2122;" horiz-adv-x="960" d="M43 780l8 23h406l-8 -23h-181l-6 -16h12q20 0 29 -6q10 -6 10 -21q0 -6 -4 -18l-98 -283h-98q-20 0 -27 13q-2 4 -2 10v2q0 12 8 31l103 288h-152zM352 436l131 367h129q28 0 37 -19q4 -12 4 -26v-219l95 264h129q28 0 36 -19q4 -12 5 -26v-322h-95q-16 0 -24 4 q-20 8 -21 37v234q0 14 2 20q0 8 2 10q4 8 17 17q4 0 8 2q6 2 22 2l7 16h-56l-118 -342h-103q-16 0 -24 4q-20 8 -21 37v234q0 14 2 20q0 8 2 10q4 8 17 17q4 0 8 2q6 2 22 2l6 16h-55l-119 -342h-45z" />
<glyph unicode="&#xe000;" horiz-adv-x="600" d="M0 600h600v-600h-600v600z" />
<glyph unicode="&#xf001;" horiz-adv-x="1017" d="M-31 -96q0 20 19 69l262 746q8 20 22 37q35 45 97 45h608q49 0 61 -29q6 -10 6 -20q0 -27 -14 -62l-242 -690h-172q-29 0 -45 4q-35 10 -34 43v4q0 23 14 58l164 466h137l14 39h-24q-51 0 -74 23q-12 12 -12 33q0 25 14 67l6 15h-373l-14 -39h29q43 0 63 -15 q18 -12 18.5 -38.5t-7.5 -45.5l-21 -57h178l-16 -47h-311l-15 -41h25q53 0 74 -20q12 -12 12 -33t-21 -72l-170 -491h-194q-45 0 -60 24q-4 8 -4 23v4z" />
<glyph unicode="&#xfb01;" horiz-adv-x="1017" d="M-31 -96q0 20 19 69l262 746q8 20 22 37q35 45 97 45h608q49 0 61 -29q6 -10 6 -20q0 -27 -14 -62l-242 -690h-172q-29 0 -45 4q-35 10 -34 43v4q0 23 14 58l164 466h137l14 39h-24q-51 0 -74 23q-12 12 -12 33q0 25 14 67l6 15h-373l-14 -39h29q43 0 63 -15 q18 -12 18.5 -38.5t-7.5 -45.5l-21 -57h178l-16 -47h-311l-15 -41h25q53 0 74 -20q12 -12 12 -33t-21 -72l-170 -491h-194q-45 0 -60 24q-4 8 -4 23v4z" />
<glyph unicode="&#xf002;" horiz-adv-x="993" d="M-29 -96q0 20 19 69l262 746q8 20 22 37q35 45 97 45h608q49 0 61 -29q6 -10 7 -20q0 -27 -15 -62l-241 -690h-173q-31 0 -47 4q-33 8 -32 43v4q0 23 14 58l223 643h-370l-15 -39h29q43 0 63 -15q18 -12 18.5 -38.5t-7.5 -45.5l-21 -57h178l-16 -47h-311l-15 -41h25 q53 0 74 -20q12 -12 12 -33t-21 -72l-170 -491h-194q-43 0 -60 24q-4 8 -4 23v4z" />
<glyph unicode="&#xfb02;" horiz-adv-x="993" d="M-29 -96q0 20 19 69l262 746q8 20 22 37q35 45 97 45h608q49 0 61 -29q6 -10 7 -20q0 -27 -15 -62l-241 -690h-173q-31 0 -47 4q-33 8 -32 43v4q0 23 14 58l223 643h-370l-15 -39h29q43 0 63 -15q18 -12 18.5 -38.5t-7.5 -45.5l-21 -57h178l-16 -47h-311l-15 -41h25 q53 0 74 -20q12 -12 12 -33t-21 -72l-170 -491h-194q-43 0 -60 24q-4 8 -4 23v4z" />
<glyph unicode="&#xfb03;" horiz-adv-x="1646" d="M1200 47v4q0 23 14 58l162 466h139l15 39h-25q-53 0 -76 23q-10 10 -10 33q0 25 14 67l23 64h184q49 0 62 -29q6 -10 6 -20q0 -27 -14 -62l-242 -690h-172q-29 0 -45 4q-35 10 -35 43zM569 -96q0 14 21 69l262 746q10 25 20 37q35 45 99 45h434l-17 -49h-385l-12 -39h27 q43 0 63.5 -14.5t20.5 -39.5q0 -20 -10 -45l-19 -57h178l-16 -47h-313l-15 -41h25q55 0 76 -20q10 -10 10 -33q0 -27 -19 -72l-172 -491h-192q-43 0 -60 24q-6 12 -6 23v4zM-31 -96q0 14 21 69l262 746q10 25 20 37q35 45 99 45h434l-17 -49h-385l-12 -39h27 q43 0 63.5 -14.5t20.5 -39.5q0 -20 -10 -45l-19 -57h178l-16 -47h-313l-15 -41h25q55 0 76 -20q10 -10 10 -33q0 -27 -19 -72l-172 -491h-192q-43 0 -60 24q-6 12 -6 23v4z" />
<glyph unicode="&#xfb04;" horiz-adv-x="1640" d="M1200 47v4q0 23 14 58l242 692h184q51 0 64 -29q4 -6 4 -20q0 -27 -14 -62l-242 -690h-172q-29 0 -45 4q-35 10 -35 43zM569 -96q0 14 21 69l262 746q10 25 20 37q35 45 99 45h434l-17 -49h-385l-12 -39h27q43 0 63.5 -14.5t20.5 -39.5q0 -20 -10 -45l-19 -57h178 l-16 -47h-313l-15 -41h25q55 0 76 -20q10 -10 10 -33q0 -27 -19 -72l-172 -491h-192q-43 0 -60 24q-6 12 -6 23v4zM-31 -96q0 14 21 69l262 746q10 25 20 37q35 45 99 45h434l-17 -49h-385l-12 -39h27q43 0 63.5 -14.5t20.5 -39.5q0 -20 -10 -45l-19 -57h178l-16 -47h-313 l-15 -41h25q55 0 76 -20q10 -10 10 -33q0 -27 -19 -72l-172 -491h-192q-43 0 -60 24q-6 12 -6 23v4z" />
</font>
</defs>
</svg>
